<svg width="90" height="90" viewBox="0 0 90 90" fill="none" xmlns="http://www.w3.org/2000/svg">
<path d="M45 90C69.8528 90 90 69.8528 90 45C90 20.1472 69.8528 0 45 0C20.1472 0 0 20.1472 0 45C0 69.8528 20.1472 90 45 90Z" fill="#3A5C39"/>
<path d="M69.6101 34.3093L40.2701 63.6393C40.1082 63.8037 39.9152 63.9344 39.7023 64.0235C39.4894 64.1127 39.2609 64.1586 39.0301 64.1586C38.7993 64.1586 38.5708 64.1127 38.358 64.0235C38.1451 63.9344 37.952 63.8037 37.7901 63.6393L20.3801 46.2393C20.0528 45.9096 19.8691 45.4638 19.8691 44.9993C19.8691 44.5347 20.0528 44.089 20.3801 43.7593L25.8501 38.2893C26.0136 38.1257 26.2077 37.9959 26.4213 37.9074C26.6349 37.8188 26.8639 37.7733 27.0951 37.7733C27.3264 37.7733 27.5554 37.8188 27.769 37.9074C27.9826 37.9959 28.1767 38.1257 28.3401 38.2893L39.0301 48.9993L61.6501 26.3793C61.8136 26.2157 62.0077 26.0859 62.2213 25.9974C62.4349 25.9089 62.6639 25.8633 62.8951 25.8633C63.1264 25.8633 63.3554 25.9089 63.569 25.9974C63.7826 26.0859 63.9767 26.2157 64.1401 26.3793L69.6101 31.8393C69.9321 32.1698 70.1122 32.6129 70.1122 33.0743C70.1122 33.5356 69.9321 33.9788 69.6101 34.3093Z" fill="#A4FFA2"/>
</svg>
