<svg width="39" height="59" viewBox="0 0 39 59" fill="none" xmlns="http://www.w3.org/2000/svg">
<path fill-rule="evenodd" clip-rule="evenodd" d="M38.6582 28.7175H38.657C38.6618 28.9537 38.6522 29.1918 38.6277 29.4307L36.9647 45.6444C36.7856 47.3908 35.8288 48.9634 34.3602 49.9252L22.522 57.6781C20.5829 58.9481 18.0754 58.9481 16.1362 57.6781L4.29799 49.9252C2.82939 48.9634 1.87259 47.3908 1.69347 45.6444L0.0305267 29.4307C0.0060223 29.1918 -0.0035695 28.9537 0.00117504 28.7175H0C0 19.2415 5.18285 15.5029 9.66188 12.2719C10.111 11.9479 10.553 11.6291 10.982 11.31C10.1777 12.9118 9.52851 15.1538 11.4006 15.1538C14.9505 15.1538 18.0945 5.31317 19.1709 0C27.1653 6.14981 38.6582 18.914 38.6582 28.7175ZM31.6434 30.7836L31.4957 33.6962C32.182 33.5754 32.8647 33.4444 33.5438 33.3034C34.0813 34.2309 34.389 35.3081 34.389 36.4572C34.389 39.5421 32.1711 42.1091 29.2429 42.6505L27.607 45.8478L27.7642 42.7474C24.4372 42.5777 21.7919 39.8264 21.7919 36.4572C21.7919 35.8449 21.8792 35.2531 22.0422 34.6934C24.7474 34.5951 27.4128 34.3403 30.0294 33.938L31.6434 30.7836ZM4.61425 36.4571C4.61425 35.3083 4.92181 34.2313 5.45909 33.3041C9.19119 34.0791 13.0342 34.5514 16.9613 34.6941C17.1241 35.2535 17.2114 35.8451 17.2114 36.4571C17.2114 39.9357 14.3914 42.7557 10.9128 42.7557C7.43422 42.7557 4.61425 39.9357 4.61425 36.4571Z" fill="white"/>
</svg>
