<svg width="273" height="60" viewBox="0 0 273 60" fill="none" xmlns="http://www.w3.org/2000/svg">
<path d="M67.6205 50.5021C64.9441 50.5021 62.4799 50.0452 60.2278 49.1313C57.9757 48.2174 56.001 46.9445 54.3038 45.3125C52.6392 43.6806 51.3336 41.7712 50.3871 39.5844C49.4406 37.3649 48.9673 34.9822 48.9673 32.4364C48.9673 29.8905 49.4242 27.5405 50.3381 25.3863C51.2847 23.1995 52.5902 21.2901 54.2548 19.6582C55.9194 18.0262 57.8778 16.7696 60.1299 15.8884C62.382 14.9745 64.8462 14.5175 67.5226 14.5175C70.199 14.5175 72.6633 14.9745 74.9154 15.8884C77.1675 16.7696 79.1258 18.0262 80.7904 19.6582C82.455 21.2901 83.7443 23.1995 84.6582 25.3863C85.6047 27.5732 86.078 29.9395 86.078 32.4853C86.078 35.0312 85.6047 37.3975 84.6582 39.5844C83.7443 41.7712 82.455 43.6969 80.7904 45.3615C79.1258 46.9934 77.1675 48.2664 74.9154 49.1802C72.6959 50.0615 70.2643 50.5021 67.6205 50.5021ZM67.5226 42.6687C69.481 42.6687 71.1782 42.2444 72.6143 41.3958C74.0504 40.5472 75.1602 39.3559 75.9435 37.8218C76.7268 36.2878 77.1185 34.4926 77.1185 32.4364C77.1185 30.935 76.89 29.5641 76.4331 28.3239C76.0088 27.0836 75.3723 26.0228 74.5237 25.1415C73.6751 24.2276 72.6633 23.5259 71.4883 23.0363C70.3133 22.5467 68.9914 22.3019 67.5226 22.3019C65.5643 22.3019 63.867 22.7263 62.4309 23.5749C60.9948 24.3908 59.8851 25.5659 59.1017 27.0999C58.3184 28.6339 57.9267 30.4128 57.9267 32.4364C57.9267 34.0031 58.1389 35.4229 58.5632 36.6958C59.0201 37.9361 59.6729 39.0132 60.5215 39.9271C61.3701 40.8083 62.382 41.4937 63.557 41.9833C64.732 42.4403 66.0539 42.6687 67.5226 42.6687Z" fill="white"/>
<path d="M104.12 50.3553C102.586 50.3553 101.167 50.0778 99.861 49.523C98.5554 48.9681 97.4783 48.2174 96.6297 47.2709C95.7811 46.2917 95.2589 45.1656 95.063 43.8927V32.2406C95.2589 30.9676 95.7811 29.8253 96.6297 28.8134C97.5109 27.769 98.588 26.953 99.861 26.3655C101.167 25.7454 102.586 25.4353 104.12 25.4353C106.438 25.4353 108.478 25.9738 110.24 27.0509C112.003 28.0954 113.374 29.5641 114.353 31.4572C115.365 33.3503 115.87 35.5045 115.87 37.9198C115.87 40.3024 115.365 42.4403 114.353 44.3333C113.374 46.1938 112.003 47.6625 110.24 48.7396C108.478 49.8167 106.438 50.3553 104.12 50.3553ZM102.505 42.7667C103.451 42.7667 104.284 42.5545 105.002 42.1302C105.72 41.7059 106.275 41.1347 106.666 40.4167C107.058 39.666 107.254 38.8173 107.254 37.8708C107.254 36.9243 107.058 36.092 106.666 35.3739C106.275 34.6558 105.72 34.0847 105.002 33.6604C104.284 33.236 103.468 33.0239 102.554 33.0239C101.672 33.0239 100.873 33.236 100.155 33.6604C99.4367 34.052 98.8818 34.6232 98.4901 35.3739C98.0985 36.092 97.9026 36.9243 97.9026 37.8708C97.9026 38.8173 98.0985 39.666 98.4901 40.4167C98.8818 41.1347 99.4203 41.7059 100.106 42.1302C100.824 42.5545 101.623 42.7667 102.505 42.7667ZM89.8734 60.0001V25.9249H98.3922V31.9468L96.9724 37.7239L98.1964 43.55V60.0001H89.8734Z" fill="white"/>
<path d="M131.466 50.4042C128.789 50.4042 126.423 49.882 124.367 48.8375C122.31 47.7604 120.695 46.2754 119.52 44.3823C118.345 42.4892 117.757 40.3187 117.757 37.8708C117.757 35.4555 118.328 33.3176 119.471 31.4572C120.613 29.5641 122.164 28.0791 124.122 27.002C126.113 25.8922 128.349 25.3374 130.829 25.3374C133.245 25.3374 135.382 25.8596 137.243 26.9041C139.136 27.9159 140.605 29.3357 141.649 31.1635C142.726 32.9586 143.265 35.0149 143.265 37.3323C143.265 37.8218 143.232 38.3277 143.167 38.85C143.134 39.3396 143.036 39.9107 142.873 40.5635L121.772 40.6614V35.1781L139.495 35.0312L135.676 37.4302C135.644 36.092 135.448 34.9986 135.089 34.1499C134.73 33.2687 134.207 32.5996 133.522 32.1426C132.837 31.6857 131.972 31.4572 130.927 31.4572C129.85 31.4572 128.92 31.7183 128.137 32.2406C127.353 32.7628 126.749 33.4972 126.325 34.4437C125.901 35.3902 125.689 36.5326 125.689 37.8708C125.689 39.2416 125.917 40.4166 126.374 41.3958C126.831 42.3424 127.484 43.0604 128.332 43.55C129.181 44.0396 130.225 44.2844 131.466 44.2844C132.641 44.2844 133.669 44.0885 134.55 43.6969C135.464 43.3052 136.28 42.7014 136.998 41.8854L141.453 46.3406C140.278 47.6789 138.842 48.6907 137.145 49.3761C135.48 50.0615 133.587 50.4042 131.466 50.4042Z" fill="white"/>
<path d="M162.002 49.8657V36.3531C162.002 35.2434 161.675 34.3784 161.023 33.7583C160.37 33.1055 159.537 32.7791 158.526 32.7791C157.84 32.7791 157.22 32.926 156.665 33.2197C156.143 33.5135 155.735 33.9215 155.441 34.4437C155.148 34.9659 155.001 35.6024 155.001 36.3531L151.671 34.7864C151.671 32.8607 152.096 31.2124 152.944 29.8416C153.793 28.4381 154.952 27.361 156.42 26.6103C157.922 25.827 159.619 25.4353 161.512 25.4353C163.242 25.4353 164.776 25.8433 166.114 26.6593C167.485 27.4426 168.562 28.5034 169.346 29.8416C170.129 31.1798 170.521 32.6975 170.521 34.3947V49.8657H162.002ZM146.482 49.8657V25.9249H155.001V49.8657H146.482Z" fill="white"/>
<path d="M186.873 50.4042C184.327 50.4042 182.026 49.8657 179.97 48.7886C177.946 47.7115 176.347 46.2264 175.172 44.3333C173.997 42.4403 173.41 40.3024 173.41 37.9198C173.41 35.5045 173.997 33.3503 175.172 31.4572C176.38 29.5641 177.995 28.0791 180.019 27.002C182.075 25.8922 184.393 25.3374 186.971 25.3374C188.831 25.3374 190.529 25.6475 192.063 26.2676C193.597 26.8877 195 27.818 196.273 29.0582L190.888 34.4437C190.398 33.9541 189.827 33.5951 189.174 33.3666C188.554 33.1055 187.82 32.9749 186.971 32.9749C186.057 32.9749 185.225 33.1871 184.474 33.6114C183.756 34.0031 183.169 34.5579 182.712 35.276C182.287 35.994 182.075 36.859 182.075 37.8708C182.075 38.85 182.287 39.7149 182.712 40.4656C183.169 41.1837 183.756 41.7549 184.474 42.1792C185.225 42.6035 186.057 42.8156 186.971 42.8156C187.885 42.8156 188.668 42.6687 189.321 42.375C189.974 42.0812 190.545 41.6569 191.035 41.1021L196.469 46.4875C195.131 47.7931 193.678 48.7723 192.112 49.425C190.578 50.0778 188.831 50.4042 186.873 50.4042Z" fill="white"/>
<path d="M210.73 50.4042C208.151 50.4042 205.85 49.8657 203.827 48.7886C201.836 47.6788 200.253 46.1775 199.078 44.2844C197.903 42.3587 197.315 40.2045 197.315 37.8218C197.315 35.4392 197.886 33.3176 199.029 31.4572C200.204 29.5641 201.803 28.0791 203.827 27.002C205.85 25.8922 208.135 25.3374 210.681 25.3374C213.227 25.3374 215.495 25.8922 217.486 27.002C219.51 28.0791 221.109 29.5641 222.284 31.4572C223.459 33.3176 224.047 35.4392 224.047 37.8218C224.047 40.2045 223.459 42.3587 222.284 44.2844C221.142 46.1775 219.559 47.6788 217.535 48.7886C215.544 49.8657 213.276 50.4042 210.73 50.4042ZM210.681 42.8156C211.627 42.8156 212.443 42.6198 213.129 42.2281C213.847 41.8038 214.402 41.2163 214.793 40.4656C215.185 39.7149 215.381 38.85 215.381 37.8708C215.381 36.8916 215.169 36.043 214.744 35.3249C214.353 34.5742 213.814 34.0031 213.129 33.6114C212.443 33.1871 211.627 32.9749 210.681 32.9749C209.767 32.9749 208.951 33.1871 208.233 33.6114C207.515 34.0357 206.96 34.6232 206.568 35.3739C206.177 36.092 205.981 36.9406 205.981 37.9198C205.981 38.8663 206.177 39.7149 206.568 40.4656C206.96 41.2163 207.515 41.8038 208.233 42.2281C208.951 42.6198 209.767 42.8156 210.681 42.8156Z" fill="white"/>
<path d="M227.426 49.8657V25.9249H235.945V49.8657H227.426ZM235.945 36.8427L232.126 33.6114C233.073 30.9023 234.329 28.8624 235.896 27.4916C237.463 26.1207 239.503 25.4353 242.016 25.4353C243.158 25.4353 244.137 25.5822 244.953 25.8759C245.802 26.1697 246.52 26.6266 247.108 27.2468L242.163 33.8562C241.902 33.5624 241.526 33.334 241.037 33.1708C240.58 32.9749 240.058 32.877 239.47 32.877C238.36 32.877 237.495 33.2197 236.875 33.9051C236.255 34.5579 235.945 35.5371 235.945 36.8427Z" fill="white"/>
<path d="M258.41 50.3553C256.092 50.3553 254.052 49.8167 252.29 48.7396C250.527 47.6625 249.14 46.1938 248.128 44.3333C247.149 42.4403 246.66 40.3024 246.66 37.9198C246.66 35.5045 247.149 33.3503 248.128 31.4572C249.14 29.5641 250.511 28.0954 252.241 27.0509C254.003 25.9738 256.06 25.4353 258.41 25.4353C259.911 25.4353 261.315 25.7127 262.62 26.2676C263.926 26.7898 265.019 27.5405 265.9 28.5197C266.782 29.4989 267.304 30.6086 267.467 31.8489V43.55C267.304 44.7903 266.782 45.9327 265.9 46.9771C265.019 48.0216 263.926 48.8539 262.62 49.474C261.315 50.0615 259.911 50.3553 258.41 50.3553ZM259.927 42.7667C260.874 42.7667 261.69 42.5708 262.375 42.1792C263.061 41.7549 263.599 41.1837 263.991 40.4656C264.415 39.7149 264.628 38.85 264.628 37.8708C264.628 36.9243 264.432 36.092 264.04 35.3739C263.648 34.6558 263.093 34.0847 262.375 33.6604C261.69 33.236 260.89 33.0239 259.976 33.0239C259.063 33.0239 258.247 33.236 257.529 33.6604C256.843 34.0847 256.288 34.6722 255.864 35.4229C255.472 36.1409 255.276 36.9569 255.276 37.8708C255.276 38.8173 255.472 39.666 255.864 40.4167C256.256 41.1347 256.81 41.7059 257.529 42.1302C258.247 42.5545 259.046 42.7667 259.927 42.7667ZM272.657 49.8657H264.285V43.4521L265.509 37.577L264.138 31.7999V14.1748H272.657V49.8657Z" fill="white"/>
<path fill-rule="evenodd" clip-rule="evenodd" d="M38.6582 28.7175H38.657C38.6618 28.9537 38.6522 29.1918 38.6277 29.4307L36.9648 45.6444C36.7856 47.3908 35.8288 48.9634 34.3602 49.9252L22.5221 57.6781C20.5829 58.9481 18.0754 58.9481 16.1362 57.6781L4.298 49.9252C2.82939 48.9634 1.87259 47.3908 1.69348 45.6444L0.030533 29.4307C0.00602867 29.1918 -0.00356314 28.9537 0.00118141 28.7175H6.36471e-06C6.36471e-06 19.2415 5.18285 15.5029 9.66188 12.2719C10.111 11.9479 10.553 11.6291 10.9821 11.31C10.1777 12.9118 9.52851 15.1538 11.4006 15.1538C14.9505 15.1538 18.0945 5.31317 19.1709 0C27.1653 6.14981 38.6582 18.914 38.6582 28.7175ZM31.6434 30.7836L31.4957 33.6962C32.182 33.5754 32.8647 33.4444 33.5438 33.3034C34.0813 34.2309 34.389 35.3081 34.389 36.4572C34.389 39.5421 32.1711 42.1091 29.2429 42.6505L27.607 45.8478L27.7642 42.7474C24.4372 42.5777 21.7919 39.8264 21.7919 36.4572C21.7919 35.8449 21.8792 35.2531 22.0422 34.6934C24.7474 34.5951 27.4128 34.3403 30.0295 33.938L31.6434 30.7836ZM4.61426 36.4571C4.61426 35.3083 4.92182 34.2313 5.45909 33.3041C9.1912 34.0791 13.0342 34.5514 16.9613 34.6941C17.1241 35.2535 17.2114 35.8451 17.2114 36.4571C17.2114 39.9357 14.3914 42.7557 10.9128 42.7557C7.43422 42.7557 4.61426 39.9357 4.61426 36.4571Z" fill="white"/>
</svg>
