<svg width="100" height="22" viewBox="0 0 100 22" fill="none" xmlns="http://www.w3.org/2000/svg">
<path d="M24.794 18.5175C23.8127 18.5175 22.9091 18.3499 22.0833 18.0148C21.2576 17.6797 20.5335 17.213 19.9112 16.6146C19.3009 16.0162 18.8222 15.3161 18.4751 14.5143C18.128 13.7005 17.9545 12.8268 17.9545 11.8934C17.9545 10.9599 18.122 10.0982 18.4571 9.30835C18.8042 8.50651 19.2829 7.8064 19.8933 7.20802C20.5036 6.60963 21.2217 6.14888 22.0474 5.82575C22.8732 5.49066 23.7768 5.32311 24.7581 5.32311C25.7395 5.32311 26.643 5.49066 27.4688 5.82575C28.2946 6.14888 29.0126 6.60963 29.623 7.20802C30.2333 7.8064 30.7061 8.50651 31.0411 9.30835C31.3882 10.1102 31.5617 10.9778 31.5617 11.9113C31.5617 12.8448 31.3882 13.7124 31.0411 14.5143C30.7061 15.3161 30.2333 16.0222 29.623 16.6326C29.0126 17.2309 28.2946 17.6977 27.4688 18.0328C26.655 18.3559 25.7634 18.5175 24.794 18.5175ZM24.7581 15.6452C25.4762 15.6452 26.0985 15.4896 26.6251 15.1785C27.1517 14.8673 27.5586 14.4305 27.8458 13.868C28.133 13.3055 28.2766 12.6473 28.2766 11.8934C28.2766 11.3428 28.1928 10.8402 28.0253 10.3854C27.8697 9.93066 27.6363 9.54171 27.3252 9.21859C27.014 8.88349 26.643 8.62619 26.2122 8.44667C25.7814 8.26716 25.2967 8.1774 24.7581 8.1774C24.0401 8.1774 23.4177 8.33298 22.8912 8.64414C22.3646 8.94333 21.9577 9.37417 21.6705 9.93665C21.3832 10.4991 21.2396 11.1514 21.2396 11.8934C21.2396 12.4678 21.3174 12.9884 21.473 13.4551C21.6405 13.9099 21.8799 14.3048 22.1911 14.6399C22.5022 14.9631 22.8732 15.2144 23.304 15.3939C23.7349 15.5615 24.2196 15.6452 24.7581 15.6452Z" fill="#16B8F3"/>
<path d="M38.1773 18.4636C37.6148 18.4636 37.0942 18.3619 36.6155 18.1584C36.1368 17.955 35.7419 17.6797 35.4307 17.3327C35.1196 16.9736 34.9281 16.5608 34.8563 16.094V11.8216C34.9281 11.3548 35.1196 10.9359 35.4307 10.565C35.7538 10.182 36.1488 9.88279 36.6155 9.66738C37.0942 9.43999 37.6148 9.3263 38.1773 9.3263C39.027 9.3263 39.775 9.52376 40.4212 9.9187C41.0675 10.3017 41.5701 10.8402 41.9292 11.5343C42.3002 12.2285 42.4857 13.0183 42.4857 13.9039C42.4857 14.7776 42.3002 15.5615 41.9292 16.2556C41.5701 16.9377 41.0675 17.4763 40.4212 17.8712C39.775 18.2661 39.027 18.4636 38.1773 18.4636ZM37.5849 15.6811C37.932 15.6811 38.2371 15.6033 38.5004 15.4478C38.7637 15.2922 38.9672 15.0827 39.1108 14.8195C39.2544 14.5442 39.3262 14.233 39.3262 13.886C39.3262 13.5389 39.2544 13.2337 39.1108 12.9705C38.9672 12.7072 38.7637 12.4977 38.5004 12.3421C38.2371 12.1866 37.9379 12.1088 37.6028 12.1088C37.2797 12.1088 36.9865 12.1866 36.7232 12.3421C36.4599 12.4858 36.2565 12.6952 36.1129 12.9705C35.9693 13.2337 35.8975 13.5389 35.8975 13.886C35.8975 14.233 35.9693 14.5442 36.1129 14.8195C36.2565 15.0827 36.4539 15.2922 36.7053 15.4478C36.9686 15.6033 37.2618 15.6811 37.5849 15.6811ZM32.9534 22.0001V9.50581H36.077V11.7138L35.5564 13.8321L36.0052 15.9684V22.0001H32.9534Z" fill="#16B8F3"/>
<path d="M48.2039 18.4816C47.2226 18.4816 46.3549 18.2901 45.6009 17.9071C44.847 17.5122 44.2546 16.9677 43.8237 16.2735C43.3929 15.5794 43.1775 14.7836 43.1775 13.886C43.1775 13.0004 43.3869 12.2165 43.8058 11.5343C44.2247 10.8402 44.7931 10.2957 45.5112 9.90075C46.2412 9.49384 47.061 9.29039 47.9705 9.29039C48.8561 9.29039 49.64 9.48188 50.3222 9.86484C51.0163 10.2358 51.5549 10.7564 51.9378 11.4266C52.3328 12.0848 52.5302 12.8388 52.5302 13.6885C52.5302 13.868 52.5183 14.0535 52.4943 14.245C52.4824 14.4245 52.4465 14.634 52.3866 14.8733L44.6495 14.9092V12.8986L51.148 12.8448L49.7477 13.7244C49.7358 13.2337 49.664 12.8328 49.5323 12.5217C49.4007 12.1985 49.2092 11.9532 48.9579 11.7857C48.7066 11.6181 48.3894 11.5343 48.0064 11.5343C47.6115 11.5343 47.2704 11.6301 46.9832 11.8216C46.696 12.013 46.4746 12.2823 46.319 12.6294C46.1634 12.9764 46.0856 13.3953 46.0856 13.886C46.0856 14.3886 46.1694 14.8195 46.337 15.1785C46.5045 15.5256 46.7439 15.7888 47.055 15.9684C47.3662 16.1479 47.7491 16.2376 48.2039 16.2376C48.6347 16.2376 49.0117 16.1658 49.3349 16.0222C49.67 15.8786 49.9691 15.6572 50.2324 15.358L51.866 16.9916C51.4352 17.4823 50.9086 17.8533 50.2863 18.1046C49.6759 18.3559 48.9818 18.4816 48.2039 18.4816Z" fill="#16B8F3"/>
<path d="M59.4005 18.2841V13.3295C59.4005 12.9226 59.2808 12.6054 59.0414 12.3781C58.8021 12.1387 58.4969 12.019 58.1259 12.019C57.8746 12.019 57.6472 12.0729 57.4437 12.1806C57.2523 12.2883 57.1027 12.4379 56.995 12.6294C56.8873 12.8209 56.8334 13.0542 56.8334 13.3295L55.6127 12.755C55.6127 12.0489 55.7683 11.4446 56.0794 10.9419C56.3906 10.4273 56.8154 10.0324 57.354 9.75713C57.9045 9.46991 58.5268 9.3263 59.2209 9.3263C59.8552 9.3263 60.4177 9.47589 60.9084 9.77508C61.411 10.0623 61.806 10.4513 62.0932 10.9419C62.3804 11.4326 62.524 11.9891 62.524 12.6114V18.2841H59.4005ZM53.7098 18.2841V9.50581H56.8334V18.2841H53.7098Z" fill="#16B8F3"/>
<path d="M68.52 18.4816C67.5865 18.4816 66.7428 18.2841 65.9888 17.8892C65.2468 17.4942 64.6604 16.9497 64.2296 16.2556C63.7987 15.5615 63.5833 14.7776 63.5833 13.9039C63.5833 13.0183 63.7987 12.2285 64.2296 11.5343C64.6724 10.8402 65.2648 10.2957 66.0068 9.90075C66.7607 9.49384 67.6104 9.29039 68.5559 9.29039C69.238 9.29039 69.8603 9.40409 70.4228 9.63147C70.9853 9.85886 71.4999 10.1999 71.9667 10.6547L69.992 12.6294C69.8125 12.4499 69.603 12.3182 69.3637 12.2344C69.1363 12.1387 68.867 12.0908 68.5559 12.0908C68.2208 12.0908 67.9156 12.1686 67.6403 12.3242C67.3771 12.4678 67.1616 12.6713 66.9941 12.9345C66.8385 13.1978 66.7607 13.515 66.7607 13.886C66.7607 14.245 66.8385 14.5622 66.9941 14.8374C67.1616 15.1007 67.3771 15.3101 67.6403 15.4657C67.9156 15.6213 68.2208 15.6991 68.5559 15.6991C68.891 15.6991 69.1782 15.6452 69.4175 15.5375C69.6569 15.4298 69.8663 15.2742 70.0458 15.0708L72.0385 17.0454C71.5478 17.5242 71.0152 17.8832 70.4408 18.1225C69.8783 18.3619 69.238 18.4816 68.52 18.4816Z" fill="#16B8F3"/>
<path d="M77.2674 18.4816C76.322 18.4816 75.4782 18.2841 74.7362 17.8892C74.0062 17.4823 73.4258 16.9318 72.9949 16.2376C72.5641 15.5315 72.3487 14.7417 72.3487 13.868C72.3487 12.9944 72.5581 12.2165 72.977 11.5343C73.4078 10.8402 73.9942 10.2957 74.7362 9.90075C75.4782 9.49384 76.316 9.29039 77.2495 9.29039C78.1829 9.29039 79.0147 9.49384 79.7447 9.90075C80.4867 10.2957 81.0731 10.8402 81.504 11.5343C81.9348 12.2165 82.1502 12.9944 82.1502 13.868C82.1502 14.7417 81.9348 15.5315 81.504 16.2376C81.0851 16.9318 80.5047 17.4823 79.7627 17.8892C79.0326 18.2841 78.2009 18.4816 77.2674 18.4816ZM77.2495 15.6991C77.5965 15.6991 77.8957 15.6273 78.147 15.4837C78.4103 15.3281 78.6138 15.1127 78.7574 14.8374C78.901 14.5622 78.9728 14.245 78.9728 13.886C78.9728 13.5269 78.895 13.2158 78.7394 12.9525C78.5958 12.6772 78.3983 12.4678 78.147 12.3242C77.8957 12.1686 77.5965 12.0908 77.2495 12.0908C76.9144 12.0908 76.6152 12.1686 76.3519 12.3242C76.0886 12.4798 75.8851 12.6952 75.7415 12.9705C75.5979 13.2337 75.5261 13.5449 75.5261 13.9039C75.5261 14.251 75.5979 14.5622 75.7415 14.8374C75.8851 15.1127 76.0886 15.3281 76.3519 15.4837C76.6152 15.6273 76.9144 15.6991 77.2495 15.6991Z" fill="#16B8F3"/>
<path d="M83.3894 18.2841V9.50581H86.513V18.2841H83.3894ZM86.513 13.509L85.1128 12.3242C85.4598 11.3309 85.9206 10.5829 86.495 10.0803C87.0695 9.57762 87.8175 9.3263 88.739 9.3263C89.1578 9.3263 89.5169 9.38015 89.8161 9.48786C90.1272 9.59557 90.3905 9.76312 90.6059 9.9905L88.7928 12.414C88.6971 12.3062 88.5595 12.2225 88.3799 12.1626C88.2124 12.0908 88.0209 12.0549 87.8055 12.0549C87.3986 12.0549 87.0815 12.1806 86.8541 12.4319C86.6267 12.6713 86.513 13.0303 86.513 13.509Z" fill="#16B8F3"/>
<path d="M94.7501 18.4636C93.9004 18.4636 93.1524 18.2661 92.5061 17.8712C91.8599 17.4763 91.3512 16.9377 90.9802 16.2556C90.6212 15.5615 90.4417 14.7776 90.4417 13.9039C90.4417 13.0183 90.6212 12.2285 90.9802 11.5343C91.3512 10.8402 91.8539 10.3017 92.4882 9.9187C93.1344 9.52376 93.8884 9.3263 94.7501 9.3263C95.3006 9.3263 95.8152 9.42802 96.2939 9.63147C96.7726 9.82296 97.1735 10.0982 97.4966 10.4572C97.8198 10.8163 98.0113 11.2232 98.0711 11.6779V15.9684C98.0113 16.4231 97.8198 16.842 97.4966 17.225C97.1735 17.6079 96.7726 17.9131 96.2939 18.1405C95.8152 18.3559 95.3006 18.4636 94.7501 18.4636ZM95.3066 15.6811C95.6536 15.6811 95.9528 15.6093 96.2041 15.4657C96.4555 15.3101 96.6529 15.1007 96.7965 14.8374C96.9521 14.5622 97.0299 14.245 97.0299 13.886C97.0299 13.5389 96.9581 13.2337 96.8145 12.9705C96.6709 12.7072 96.4674 12.4977 96.2041 12.3421C95.9528 12.1866 95.6596 12.1088 95.3245 12.1088C94.9894 12.1088 94.6902 12.1866 94.4269 12.3421C94.1756 12.4977 93.9722 12.7131 93.8166 12.9884C93.673 13.2517 93.6012 13.5509 93.6012 13.886C93.6012 14.233 93.673 14.5442 93.8166 14.8195C93.9602 15.0827 94.1637 15.2922 94.4269 15.4478C94.6902 15.6033 94.9834 15.6811 95.3066 15.6811ZM99.974 18.2841H96.9042V15.9325L97.353 13.7783L96.8504 11.66V5.19745H99.974V18.2841Z" fill="#16B8F3"/>
<path fill-rule="evenodd" clip-rule="evenodd" d="M14.1747 10.5298H14.1742C14.176 10.6164 14.1725 10.7037 14.1635 10.7913L13.5537 16.7363C13.4881 17.3766 13.1372 17.9533 12.5988 18.3059L8.25809 21.1487C7.54705 21.6143 6.62763 21.6143 5.91659 21.1487L1.57593 18.3059C1.03744 17.9533 0.686615 17.3766 0.62094 16.7363L0.0111931 10.7913C0.00220742 10.7037 -0.00130941 10.6164 0.00043129 10.5298H0C0 7.05522 1.90038 5.68438 3.54269 4.4997L3.5427 4.49969C3.70737 4.38091 3.86945 4.26399 4.02675 4.14702C3.73182 4.73434 3.49379 5.55638 4.18022 5.55638C5.48184 5.55638 6.63466 1.94816 7.02932 0C9.9606 2.25493 14.1747 6.93512 14.1747 10.5298ZM11.6026 11.2873L11.5485 12.3552C11.8 12.3109 12.0502 12.2629 12.2991 12.2112C12.4962 12.5512 12.609 12.9462 12.609 13.3675C12.609 14.4985 11.796 15.4396 10.7225 15.6383L10.1226 16.8108L10.1803 15.674C8.96019 15.6119 7.99003 14.603 7.99003 13.3675C7.99003 13.143 8.02206 12.926 8.08179 12.7208C9.07386 12.6848 10.0513 12.5914 11.0109 12.4438L11.6026 11.2873ZM1.69153 13.3675C1.69153 12.9463 1.8043 12.5515 2.00128 12.2115C3.36973 12.4956 4.77885 12.6688 6.21879 12.7211C6.27848 12.9263 6.31048 13.1432 6.31048 13.3675C6.31048 14.643 5.27649 15.677 4.001 15.677C2.72552 15.677 1.69153 14.643 1.69153 13.3675Z" fill="#16B8F3"/>
</svg>
