<svg width="129" height="40" viewBox="0 0 129 40" fill="none" xmlns="http://www.w3.org/2000/svg">
<rect width="128.571" height="40" rx="4" fill="white"/>
<g clip-path="url(#clip0_508_55)">
<path d="M30.5757 23.4672C31.2393 24.3564 31.9993 24.9314 32.8571 25.1922C32.4857 26.2807 31.8943 27.415 31.0857 28.595C29.8393 30.3736 28.6093 31.2629 27.3957 31.2629C26.9428 31.2629 26.2714 31.1172 25.3814 30.8257C24.5564 30.5343 23.8364 30.3886 23.2214 30.3886C22.6071 30.3886 21.9271 30.5422 21.1821 30.8486C20.4057 31.14 19.7664 31.2857 19.265 31.2857C17.8085 31.2857 16.3764 30.1129 14.9685 27.7672C13.5614 25.4529 12.8571 23.1757 12.8571 20.9379C12.8571 18.8686 13.3907 17.1743 14.4593 15.8557C15.5593 14.5379 16.9185 13.8786 18.5357 13.8786C18.8921 13.8786 19.2885 13.9207 19.7257 14.005C20.1974 14.1014 20.6542 14.26 21.0843 14.4764C21.5864 14.7364 21.9985 14.9172 22.3228 15.0164C22.6457 15.1164 22.8971 15.1664 23.075 15.1664C23.2857 15.1664 23.6085 15.12 24.0464 15.0279C24.5063 14.9269 24.948 14.7564 25.3564 14.5222C25.7484 14.3117 26.1538 14.1273 26.57 13.97C26.9047 13.8482 27.2581 13.7858 27.6143 13.7857C28.7471 13.7857 29.7664 14.0772 30.6728 14.66C31.1585 14.9664 31.6514 15.4186 32.1528 16.0172C31.4085 16.63 30.8671 17.1664 30.5271 17.6264C29.8957 18.485 29.58 19.4193 29.58 20.4314C29.58 21.5514 29.9121 22.5629 30.5757 23.4672ZM25.6971 12.7286C25.1307 13.2343 24.6128 13.5643 24.1435 13.7172C23.9399 13.7721 23.7331 13.8146 23.5243 13.8443C23.2735 13.8822 22.9864 13.9172 22.6628 13.9479C22.6793 12.5986 23.0514 11.4336 23.7793 10.4522C24.5078 9.47145 25.705 8.79645 27.3721 8.42859C27.4043 8.58216 27.4285 8.6893 27.4443 8.75002V9.00359C27.4443 9.55502 27.3071 10.1764 27.0321 10.8664C26.7407 11.5407 26.2957 12.1614 25.6964 12.7286H25.6971Z" fill="#231F20"/>
<path d="M43.2514 30.5829L44.3042 27.6915H49.1285L50.1814 30.5829H52.02L47.6985 19.3629H45.75L41.4285 30.5829H43.2514ZM48.61 26.2772H44.8228L46.6928 21.2015H46.7557L48.61 26.2772ZM54.6285 33.6943V29.3886C55.2885 30.3315 56.1057 30.8029 57.1114 30.8029C58.2742 30.8029 59.2014 30.3786 59.8614 29.53C60.4742 28.7443 60.7885 27.7543 60.7885 26.56C60.7885 25.3029 60.4742 24.2972 59.8457 23.5115C59.1542 22.6629 58.2271 22.2386 57.0328 22.2386C55.9328 22.2386 55.0842 22.6315 54.5185 23.4329V22.4586H52.9628V33.6943H54.6285ZM56.7342 29.4515C56.1057 29.4515 55.6028 29.2 55.2257 28.7129C54.7857 28.1786 54.5814 27.4715 54.5814 26.6072V26.4657C54.5814 25.6329 54.7542 24.9572 55.1 24.4543C55.4928 23.8729 56.0585 23.59 56.7814 23.59C57.5985 23.59 58.1957 23.8729 58.5885 24.47C58.9028 24.9729 59.0757 25.6643 59.0757 26.56C59.0757 27.4557 58.8871 28.1472 58.5414 28.65C58.1485 29.1843 57.5514 29.4515 56.7342 29.4515ZM64.0257 33.6943V29.3886C64.6857 30.3315 65.5028 30.8029 66.5085 30.8029C67.6714 30.8029 68.5985 30.3786 69.2585 29.53C69.8714 28.7443 70.1857 27.7543 70.1857 26.56C70.1857 25.3029 69.8714 24.2972 69.2428 23.5115C68.5514 22.6629 67.6242 22.2386 66.43 22.2386C65.33 22.2386 64.4814 22.6315 63.9157 23.4329V22.4586H62.36V33.6943H64.0257ZM66.1314 29.4515C65.5028 29.4515 65 29.2 64.6228 28.7129C64.1828 28.1786 63.9785 27.4715 63.9785 26.6072V26.4657C63.9785 25.6329 64.1514 24.9572 64.4971 24.4543C64.89 23.8729 65.4557 23.59 66.1785 23.59C66.9957 23.59 67.5928 23.8729 67.9857 24.47C68.3 24.9729 68.4728 25.6643 68.4728 26.56C68.4728 27.4557 68.2842 28.1472 67.9385 28.65C67.5457 29.1843 66.9485 29.4515 66.1314 29.4515ZM81.2485 30.8029C82.6628 30.8029 83.7628 30.52 84.5485 29.9543C85.3342 29.3729 85.7271 28.5872 85.7271 27.5815C85.7271 26.5443 85.24 25.7429 84.2814 25.1615C83.8414 24.8943 82.8514 24.5329 81.3428 24.0615C80.29 23.7472 79.6457 23.5115 79.3942 23.37C78.8285 23.0715 78.5614 22.6786 78.5614 22.1757C78.5614 21.61 78.7971 21.2015 79.2842 20.95C79.6771 20.73 80.2428 20.62 80.9814 20.62C81.83 20.62 82.4585 20.7772 82.8985 21.1072C83.3385 21.4215 83.6214 21.9557 83.7785 22.6786H85.4757C85.3657 21.4529 84.9257 20.5572 84.14 19.9757C83.4014 19.41 82.38 19.1429 81.0757 19.1429C79.8814 19.1429 78.8914 19.41 78.1057 19.9443C77.2728 20.51 76.8642 21.28 76.8642 22.27C76.8642 23.2443 77.2885 23.9986 78.1528 24.5172C78.4985 24.7057 79.3471 25.0043 80.73 25.4443C81.9714 25.8215 82.71 26.0729 82.9614 26.1986C83.6685 26.56 84.03 27.0472 84.03 27.6757C84.03 28.1786 83.7785 28.5715 83.2757 28.8543C82.7728 29.1372 82.0971 29.2943 81.2485 29.2943C80.3057 29.2943 79.6142 29.1215 79.1585 28.7757C78.6557 28.3986 78.3414 27.7543 78.2157 26.8743H76.5185C76.6128 28.2886 77.1157 29.3257 78.0428 29.9857C78.8128 30.52 79.8814 30.8029 81.2485 30.8029ZM91.2742 30.5829V29.2H90.2057C90.0014 29.2 89.86 29.1372 89.7657 29.0429C89.6714 28.9329 89.6242 28.7757 89.6242 28.5557V23.8415H91.4785V22.4586H89.6242V19.8343L87.9585 20.5257V22.4586H86.45V23.8415H87.9585V28.5557C87.9585 29.2 88.1 29.6872 88.4142 30.0329C88.7285 30.3943 89.2471 30.5829 89.9385 30.5829H91.2742ZM96.5542 30.8029C97.78 30.8029 98.77 30.3786 99.5242 29.5615C100.247 28.7757 100.609 27.7543 100.609 26.5286C100.609 25.2872 100.231 24.2657 99.5085 23.4643C98.77 22.6472 97.78 22.2386 96.5542 22.2386C95.3285 22.2386 94.3385 22.6472 93.6 23.4643C92.8614 24.2657 92.5 25.2872 92.5 26.5286C92.5 27.7543 92.8614 28.7757 93.5842 29.5615C94.3385 30.3786 95.3285 30.8029 96.5542 30.8029ZM96.5542 29.4357C95.7842 29.4357 95.1871 29.1215 94.7628 28.5243C94.3857 28.0057 94.2128 27.3457 94.2128 26.5286C94.2128 25.7115 94.3857 25.0357 94.7628 24.5172C95.1871 23.9043 95.7842 23.6057 96.5542 23.6057C97.3242 23.6057 97.9214 23.9043 98.3614 24.5172C98.7385 25.0357 98.9271 25.7115 98.9271 26.5286C98.9271 27.33 98.7385 27.99 98.3614 28.5243C97.9214 29.1215 97.3242 29.4357 96.5542 29.4357ZM103.861 30.5829V26.2772C103.861 25.57 104.066 24.9886 104.49 24.5486C104.883 24.14 105.339 23.9357 105.841 23.9357C106.219 23.9357 106.611 23.9829 107.02 24.1086V22.4429C106.737 22.3015 106.376 22.2386 105.967 22.2386C105.464 22.2386 105.024 22.38 104.647 22.6943C104.333 22.9143 104.066 23.2443 103.861 23.6843V22.4586H102.196V30.5829H103.861ZM111.546 30.8029C112.63 30.8029 113.526 30.4886 114.233 29.8757C114.799 29.3729 115.16 28.7286 115.349 27.9743H113.683C113.463 28.4457 113.227 28.8072 112.944 29.0272C112.583 29.2943 112.111 29.4357 111.53 29.4357C110.87 29.4357 110.351 29.2157 109.974 28.8072C109.597 28.3829 109.393 27.77 109.33 26.9843H115.49C115.474 25.5386 115.144 24.4072 114.516 23.59C113.824 22.6786 112.803 22.2386 111.483 22.2386C110.289 22.2386 109.33 22.6472 108.639 23.48C107.916 24.2972 107.57 25.3029 107.57 26.5129C107.57 27.8486 107.947 28.9015 108.701 29.6872C109.393 30.4257 110.351 30.8029 111.546 30.8029ZM113.746 25.7272H109.361C109.456 25.0357 109.691 24.5172 110.037 24.1557C110.414 23.7786 110.901 23.6057 111.53 23.6057C112.85 23.6057 113.589 24.3129 113.746 25.7272Z" fill="black"/>
<path d="M43.2514 30.5829L44.3042 27.6915H49.1285L50.1814 30.5829H52.02L47.6985 19.3629H45.75L41.4285 30.5829H43.2514ZM48.61 26.2772H44.8228L46.6928 21.2015H46.7557L48.61 26.2772ZM54.6285 33.6943V29.3886C55.2885 30.3315 56.1057 30.8029 57.1114 30.8029C58.2742 30.8029 59.2014 30.3786 59.8614 29.53C60.4742 28.7443 60.7885 27.7543 60.7885 26.56C60.7885 25.3029 60.4742 24.2972 59.8457 23.5115C59.1542 22.6629 58.2271 22.2386 57.0328 22.2386C55.9328 22.2386 55.0842 22.6315 54.5185 23.4329V22.4586H52.9628V33.6943H54.6285ZM56.7342 29.4515C56.1057 29.4515 55.6028 29.2 55.2257 28.7129C54.7857 28.1786 54.5814 27.4715 54.5814 26.6072V26.4657C54.5814 25.6329 54.7542 24.9572 55.1 24.4543C55.4928 23.8729 56.0585 23.59 56.7814 23.59C57.5985 23.59 58.1957 23.8729 58.5885 24.47C58.9028 24.9729 59.0757 25.6643 59.0757 26.56C59.0757 27.4557 58.8871 28.1472 58.5414 28.65C58.1485 29.1843 57.5514 29.4515 56.7342 29.4515ZM64.0257 33.6943V29.3886C64.6857 30.3315 65.5028 30.8029 66.5085 30.8029C67.6714 30.8029 68.5985 30.3786 69.2585 29.53C69.8714 28.7443 70.1857 27.7543 70.1857 26.56C70.1857 25.3029 69.8714 24.2972 69.2428 23.5115C68.5514 22.6629 67.6242 22.2386 66.43 22.2386C65.33 22.2386 64.4814 22.6315 63.9157 23.4329V22.4586H62.36V33.6943H64.0257ZM66.1314 29.4515C65.5028 29.4515 65 29.2 64.6228 28.7129C64.1828 28.1786 63.9785 27.4715 63.9785 26.6072V26.4657C63.9785 25.6329 64.1514 24.9572 64.4971 24.4543C64.89 23.8729 65.4557 23.59 66.1785 23.59C66.9957 23.59 67.5928 23.8729 67.9857 24.47C68.3 24.9729 68.4728 25.6643 68.4728 26.56C68.4728 27.4557 68.2842 28.1472 67.9385 28.65C67.5457 29.1843 66.9485 29.4515 66.1314 29.4515ZM81.2485 30.8029C82.6628 30.8029 83.7628 30.52 84.5485 29.9543C85.3342 29.3729 85.7271 28.5872 85.7271 27.5815C85.7271 26.5443 85.24 25.7429 84.2814 25.1615C83.8414 24.8943 82.8514 24.5329 81.3428 24.0615C80.29 23.7472 79.6457 23.5115 79.3942 23.37C78.8285 23.0715 78.5614 22.6786 78.5614 22.1757C78.5614 21.61 78.7971 21.2015 79.2842 20.95C79.6771 20.73 80.2428 20.62 80.9814 20.62C81.83 20.62 82.4585 20.7772 82.8985 21.1072C83.3385 21.4215 83.6214 21.9557 83.7785 22.6786H85.4757C85.3657 21.4529 84.9257 20.5572 84.14 19.9757C83.4014 19.41 82.38 19.1429 81.0757 19.1429C79.8814 19.1429 78.8914 19.41 78.1057 19.9443C77.2728 20.51 76.8642 21.28 76.8642 22.27C76.8642 23.2443 77.2885 23.9986 78.1528 24.5172C78.4985 24.7057 79.3471 25.0043 80.73 25.4443C81.9714 25.8215 82.71 26.0729 82.9614 26.1986C83.6685 26.56 84.03 27.0472 84.03 27.6757C84.03 28.1786 83.7785 28.5715 83.2757 28.8543C82.7728 29.1372 82.0971 29.2943 81.2485 29.2943C80.3057 29.2943 79.6142 29.1215 79.1585 28.7757C78.6557 28.3986 78.3414 27.7543 78.2157 26.8743H76.5185C76.6128 28.2886 77.1157 29.3257 78.0428 29.9857C78.8128 30.52 79.8814 30.8029 81.2485 30.8029ZM91.2742 30.5829V29.2H90.2057C90.0014 29.2 89.86 29.1372 89.7657 29.0429C89.6714 28.9329 89.6242 28.7757 89.6242 28.5557V23.8415H91.4785V22.4586H89.6242V19.8343L87.9585 20.5257V22.4586H86.45V23.8415H87.9585V28.5557C87.9585 29.2 88.1 29.6872 88.4142 30.0329C88.7285 30.3943 89.2471 30.5829 89.9385 30.5829H91.2742ZM96.5542 30.8029C97.78 30.8029 98.77 30.3786 99.5242 29.5615C100.247 28.7757 100.609 27.7543 100.609 26.5286C100.609 25.2872 100.231 24.2657 99.5085 23.4643C98.77 22.6472 97.78 22.2386 96.5542 22.2386C95.3285 22.2386 94.3385 22.6472 93.6 23.4643C92.8614 24.2657 92.5 25.2872 92.5 26.5286C92.5 27.7543 92.8614 28.7757 93.5842 29.5615C94.3385 30.3786 95.3285 30.8029 96.5542 30.8029ZM96.5542 29.4357C95.7842 29.4357 95.1871 29.1215 94.7628 28.5243C94.3857 28.0057 94.2128 27.3457 94.2128 26.5286C94.2128 25.7115 94.3857 25.0357 94.7628 24.5172C95.1871 23.9043 95.7842 23.6057 96.5542 23.6057C97.3242 23.6057 97.9214 23.9043 98.3614 24.5172C98.7385 25.0357 98.9271 25.7115 98.9271 26.5286C98.9271 27.33 98.7385 27.99 98.3614 28.5243C97.9214 29.1215 97.3242 29.4357 96.5542 29.4357ZM103.861 30.5829V26.2772C103.861 25.57 104.066 24.9886 104.49 24.5486C104.883 24.14 105.339 23.9357 105.841 23.9357C106.219 23.9357 106.611 23.9829 107.02 24.1086V22.4429C106.737 22.3015 106.376 22.2386 105.967 22.2386C105.464 22.2386 105.024 22.38 104.647 22.6943C104.333 22.9143 104.066 23.2443 103.861 23.6843V22.4586H102.196V30.5829H103.861ZM111.546 30.8029C112.63 30.8029 113.526 30.4886 114.233 29.8757C114.799 29.3729 115.16 28.7286 115.349 27.9743H113.683C113.463 28.4457 113.227 28.8072 112.944 29.0272C112.583 29.2943 112.111 29.4357 111.53 29.4357C110.87 29.4357 110.351 29.2157 109.974 28.8072C109.597 28.3829 109.393 27.77 109.33 26.9843H115.49C115.474 25.5386 115.144 24.4072 114.516 23.59C113.824 22.6786 112.803 22.2386 111.483 22.2386C110.289 22.2386 109.33 22.6472 108.639 23.48C107.916 24.2972 107.57 25.3029 107.57 26.5129C107.57 27.8486 107.947 28.9015 108.701 29.6872C109.393 30.4257 110.351 30.8029 111.546 30.8029ZM113.746 25.7272H109.361C109.456 25.0357 109.691 24.5172 110.037 24.1557C110.414 23.7786 110.901 23.6057 111.53 23.6057C112.85 23.6057 113.589 24.3129 113.746 25.7272Z" fill="#231F20"/>
<path d="M44.1714 13.24C45.1314 13.24 45.8686 12.9571 46.3829 12.4C46.8714 11.8686 47.12 11.1229 47.12 10.18C47.12 9.22 46.8886 8.47429 46.4343 7.96C45.9371 7.39429 45.2086 7.12 44.24 7.12H42.0457V13.24H44.1714ZM44.0514 12.6314H42.7486V7.72857H44.1286C44.9343 7.72857 45.5171 7.93429 45.8943 8.35429C46.2457 8.74857 46.4257 9.35714 46.4257 10.18C46.4257 10.9771 46.2286 11.5857 45.8514 11.9971C45.4486 12.4171 44.8486 12.6314 44.0514 12.6314ZM49.9914 13.36C50.6514 13.36 51.1829 13.1286 51.5857 12.6657C51.9543 12.2371 52.1429 11.6886 52.1429 11.0286C52.1429 10.36 51.9543 9.81143 51.5771 9.37429C51.1829 8.91143 50.6514 8.68857 49.9914 8.68857C49.3229 8.68857 48.8 8.91143 48.4057 9.37429C48.0286 9.81143 47.84 10.36 47.84 11.0286C47.84 11.6886 48.0286 12.2371 48.4057 12.6657C48.8 13.1286 49.3229 13.36 49.9914 13.36ZM49.9914 12.7857C49.52 12.7857 49.1514 12.6057 48.8943 12.2457C48.6543 11.92 48.5429 11.5171 48.5429 11.0286C48.5429 10.5314 48.6543 10.1286 48.8943 9.80286C49.1514 9.44286 49.52 9.26286 49.9914 9.26286C50.4543 9.26286 50.8229 9.44286 51.0971 9.80286C51.3286 10.1286 51.4486 10.5314 51.4486 11.0286C51.4486 11.5086 51.3286 11.92 51.0971 12.2457C50.8229 12.6057 50.4543 12.7857 49.9914 12.7857ZM54.6971 13.24L55.7429 9.67429L56.7714 13.24H57.4229L58.9314 8.80857H58.1771L57.0886 12.4L56.06 8.80857H55.4171L54.3886 12.4L53.3 8.80857H52.5457L54.0543 13.24H54.6971ZM60.1914 13.24V10.5657C60.2171 10.1629 60.3457 9.84571 60.5857 9.60571C60.6887 9.49852 60.8126 9.41355 60.9497 9.35606C61.0868 9.29856 61.2342 9.26976 61.3829 9.27143C62.1543 9.27143 62.5486 9.7 62.5486 10.5657V13.24H63.2343V10.5143C63.2343 9.29714 62.6771 8.68857 61.58 8.68857C61.2886 8.68857 61.0229 8.75714 60.7829 8.89429C60.5429 9.02286 60.3457 9.21143 60.1914 9.46V8.80857H59.5057V13.24H60.1914ZM65.1114 13.24V7H64.4343V13.24H65.1114ZM68.2914 13.36C68.9514 13.36 69.4829 13.1286 69.8857 12.6657C70.2543 12.2371 70.4429 11.6886 70.4429 11.0286C70.4429 10.36 70.2543 9.81143 69.8771 9.37429C69.4829 8.91143 68.9514 8.68857 68.2914 8.68857C67.6229 8.68857 67.1 8.91143 66.7057 9.37429C66.3286 9.81143 66.14 10.36 66.14 11.0286C66.14 11.6886 66.3286 12.2371 66.7057 12.6657C67.1 13.1286 67.6229 13.36 68.2914 13.36ZM68.2914 12.7857C67.82 12.7857 67.4514 12.6057 67.1943 12.2457C66.9543 11.92 66.8429 11.5171 66.8429 11.0286C66.8429 10.5314 66.9543 10.1286 67.1943 9.80286C67.4514 9.44286 67.82 9.26286 68.2914 9.26286C68.7543 9.26286 69.1229 9.44286 69.3971 9.80286C69.6286 10.1286 69.7486 10.5314 69.7486 11.0286C69.7486 11.5086 69.6286 11.92 69.3971 12.2457C69.1229 12.6057 68.7543 12.7857 68.2914 12.7857ZM72.6371 13.36C73.0231 13.3649 73.4039 13.2705 73.7429 13.0857C74.0171 12.9314 74.2486 12.7343 74.42 12.4943V13.24H75.0629V10.3943C75.0629 9.88 74.9257 9.47714 74.6686 9.18571C74.36 8.85143 73.8971 8.68857 73.2629 8.68857C72.7314 8.68857 72.3114 8.79143 71.9857 8.99714C71.6257 9.22 71.3943 9.57143 71.3 10.0343L71.9771 10.0857C72.0457 9.80286 72.1914 9.58857 72.4229 9.45143C72.6286 9.31429 72.8943 9.25429 73.22 9.25429C73.9914 9.25429 74.3771 9.62286 74.3771 10.3686V10.6L73.3143 10.6171C72.6457 10.6257 72.1314 10.7543 71.7714 10.9943C71.36 11.2514 71.1629 11.6286 71.1629 12.1343C71.1629 12.4943 71.3 12.7943 71.5743 13.0257C71.84 13.2486 72.1914 13.36 72.6371 13.36ZM72.7829 12.82C72.5086 12.82 72.2857 12.7514 72.1143 12.6229C72.0352 12.5648 71.9713 12.4885 71.928 12.4005C71.8847 12.3124 71.8634 12.2152 71.8657 12.1171C71.8657 11.4743 72.3629 11.1486 73.3571 11.1314L74.3771 11.1143V11.4914C74.3771 11.8343 74.2143 12.1429 73.8971 12.4086C73.5884 12.6771 73.1921 12.8234 72.7829 12.82ZM77.9686 13.36C78.6371 13.36 79.1343 13.0771 79.4429 12.5114V13.24H80.0857V7H79.4V9.62286C79.0571 8.99714 78.5686 8.68857 77.9343 8.68857C77.3 8.68857 76.8114 8.92 76.4514 9.4C76.1171 9.82857 75.9543 10.36 75.9543 11.0114C75.9543 11.68 76.1171 12.2286 76.4514 12.6571C76.8114 13.12 77.3171 13.36 77.9686 13.36ZM78.0543 12.7943C77.5743 12.7943 77.2143 12.6143 76.9743 12.2714C76.76 11.9629 76.6571 11.5429 76.6571 11.0114C76.6571 10.48 76.76 10.0686 76.9829 9.76857C77.2229 9.42571 77.5914 9.25429 78.08 9.25429C78.4743 9.25429 78.8 9.40857 79.0486 9.73429C79.2886 10.0514 79.4171 10.4714 79.4171 10.9857V11.0714C79.4171 11.5686 79.3057 11.9714 79.0914 12.28C78.8429 12.6229 78.5 12.7943 78.0543 12.7943ZM85.9829 13.36C86.6429 13.36 87.1743 13.1286 87.5771 12.6657C87.9457 12.2371 88.1343 11.6886 88.1343 11.0286C88.1343 10.36 87.9457 9.81143 87.5686 9.37429C87.1743 8.91143 86.6429 8.68857 85.9829 8.68857C85.3143 8.68857 84.7914 8.91143 84.3971 9.37429C84.02 9.81143 83.8314 10.36 83.8314 11.0286C83.8314 11.6886 84.02 12.2371 84.3971 12.6657C84.7914 13.1286 85.3143 13.36 85.9829 13.36ZM85.9829 12.7857C85.5114 12.7857 85.1429 12.6057 84.8857 12.2457C84.6457 11.92 84.5343 11.5171 84.5343 11.0286C84.5343 10.5314 84.6457 10.1286 84.8857 9.80286C85.1429 9.44286 85.5114 9.26286 85.9829 9.26286C86.4457 9.26286 86.8143 9.44286 87.0886 9.80286C87.32 10.1286 87.44 10.5314 87.44 11.0286C87.44 11.5086 87.32 11.92 87.0886 12.2457C86.8143 12.6057 86.4457 12.7857 85.9829 12.7857ZM89.7114 13.24V10.5657C89.7371 10.1629 89.8657 9.84571 90.1057 9.60571C90.2087 9.49852 90.3326 9.41355 90.4697 9.35606C90.6068 9.29856 90.7542 9.26976 90.9029 9.27143C91.6743 9.27143 92.0686 9.7 92.0686 10.5657V13.24H92.7543V10.5143C92.7543 9.29714 92.1971 8.68857 91.1 8.68857C90.8086 8.68857 90.5429 8.75714 90.3029 8.89429C90.0629 9.02286 89.8657 9.21143 89.7114 9.46V8.80857H89.0257V13.24H89.7114ZM98.84 13.24V12.6657H98.2743C98.12 12.6657 98.0086 12.6229 97.9486 12.5543C97.88 12.4857 97.8543 12.3657 97.8543 12.2029V9.38286H98.9514V8.80857H97.8543V7.37714L97.1771 7.66V8.80857H96.2857V9.38286H97.1771V12.2029C97.1771 12.5371 97.2457 12.7857 97.3914 12.9571C97.5457 13.1457 97.8114 13.24 98.1714 13.24H98.84ZM100.4 13.24V10.7114C100.4 10.3 100.511 9.94857 100.743 9.67429C100.966 9.4 101.249 9.26286 101.591 9.26286C101.96 9.26286 102.243 9.37429 102.449 9.59714C102.637 9.82 102.74 10.1371 102.74 10.5486V13.24H103.426V10.4457C103.426 9.88 103.289 9.44286 103.014 9.14286C102.74 8.83429 102.337 8.68857 101.823 8.68857C101.523 8.68857 101.257 8.75714 101.017 8.89429C100.76 9.04 100.554 9.25429 100.4 9.53714V7H99.7143V13.24H100.4ZM106.331 13.36C106.906 13.36 107.377 13.1886 107.746 12.8629C108.046 12.5886 108.243 12.2457 108.346 11.8171H107.66C107.549 12.1257 107.403 12.3571 107.214 12.5114C106.991 12.6914 106.691 12.7857 106.331 12.7857C105.911 12.7857 105.577 12.6486 105.337 12.3743C105.097 12.1 104.969 11.7143 104.934 11.2171H108.431C108.414 10.4457 108.243 9.83714 107.917 9.40857C107.557 8.92857 107.017 8.68857 106.306 8.68857C105.663 8.68857 105.157 8.92 104.78 9.38286C104.403 9.82 104.223 10.3686 104.223 11.02C104.223 11.74 104.411 12.3057 104.806 12.7343C105.183 13.1457 105.697 13.36 106.331 13.36ZM107.72 10.6857H104.951C104.994 10.2486 105.131 9.90571 105.371 9.64857C105.611 9.39143 105.929 9.26286 106.323 9.26286C107.163 9.26286 107.634 9.73429 107.72 10.6857Z" fill="black"/>
<path d="M44.1714 13.24C45.1314 13.24 45.8686 12.9571 46.3829 12.4C46.8714 11.8686 47.12 11.1229 47.12 10.18C47.12 9.22 46.8886 8.47429 46.4343 7.96C45.9371 7.39429 45.2086 7.12 44.24 7.12H42.0457V13.24H44.1714ZM44.0514 12.6314H42.7486V7.72857H44.1286C44.9343 7.72857 45.5171 7.93429 45.8943 8.35429C46.2457 8.74857 46.4257 9.35714 46.4257 10.18C46.4257 10.9771 46.2286 11.5857 45.8514 11.9971C45.4486 12.4171 44.8486 12.6314 44.0514 12.6314ZM49.9914 13.36C50.6514 13.36 51.1829 13.1286 51.5857 12.6657C51.9543 12.2371 52.1429 11.6886 52.1429 11.0286C52.1429 10.36 51.9543 9.81143 51.5771 9.37429C51.1829 8.91143 50.6514 8.68857 49.9914 8.68857C49.3229 8.68857 48.8 8.91143 48.4057 9.37429C48.0286 9.81143 47.84 10.36 47.84 11.0286C47.84 11.6886 48.0286 12.2371 48.4057 12.6657C48.8 13.1286 49.3229 13.36 49.9914 13.36ZM49.9914 12.7857C49.52 12.7857 49.1514 12.6057 48.8943 12.2457C48.6543 11.92 48.5429 11.5171 48.5429 11.0286C48.5429 10.5314 48.6543 10.1286 48.8943 9.80286C49.1514 9.44286 49.52 9.26286 49.9914 9.26286C50.4543 9.26286 50.8229 9.44286 51.0971 9.80286C51.3286 10.1286 51.4486 10.5314 51.4486 11.0286C51.4486 11.5086 51.3286 11.92 51.0971 12.2457C50.8229 12.6057 50.4543 12.7857 49.9914 12.7857ZM54.6971 13.24L55.7429 9.67429L56.7714 13.24H57.4229L58.9314 8.80857H58.1771L57.0886 12.4L56.06 8.80857H55.4171L54.3886 12.4L53.3 8.80857H52.5457L54.0543 13.24H54.6971ZM60.1914 13.24V10.5657C60.2171 10.1629 60.3457 9.84571 60.5857 9.60571C60.6887 9.49852 60.8126 9.41355 60.9497 9.35606C61.0868 9.29856 61.2342 9.26976 61.3829 9.27143C62.1543 9.27143 62.5486 9.7 62.5486 10.5657V13.24H63.2343V10.5143C63.2343 9.29714 62.6771 8.68857 61.58 8.68857C61.2886 8.68857 61.0229 8.75714 60.7829 8.89429C60.5429 9.02286 60.3457 9.21143 60.1914 9.46V8.80857H59.5057V13.24H60.1914ZM65.1114 13.24V7H64.4343V13.24H65.1114ZM68.2914 13.36C68.9514 13.36 69.4829 13.1286 69.8857 12.6657C70.2543 12.2371 70.4429 11.6886 70.4429 11.0286C70.4429 10.36 70.2543 9.81143 69.8771 9.37429C69.4829 8.91143 68.9514 8.68857 68.2914 8.68857C67.6229 8.68857 67.1 8.91143 66.7057 9.37429C66.3286 9.81143 66.14 10.36 66.14 11.0286C66.14 11.6886 66.3286 12.2371 66.7057 12.6657C67.1 13.1286 67.6229 13.36 68.2914 13.36ZM68.2914 12.7857C67.82 12.7857 67.4514 12.6057 67.1943 12.2457C66.9543 11.92 66.8429 11.5171 66.8429 11.0286C66.8429 10.5314 66.9543 10.1286 67.1943 9.80286C67.4514 9.44286 67.82 9.26286 68.2914 9.26286C68.7543 9.26286 69.1229 9.44286 69.3971 9.80286C69.6286 10.1286 69.7486 10.5314 69.7486 11.0286C69.7486 11.5086 69.6286 11.92 69.3971 12.2457C69.1229 12.6057 68.7543 12.7857 68.2914 12.7857ZM72.6371 13.36C73.0231 13.3649 73.4039 13.2705 73.7429 13.0857C74.0171 12.9314 74.2486 12.7343 74.42 12.4943V13.24H75.0629V10.3943C75.0629 9.88 74.9257 9.47714 74.6686 9.18571C74.36 8.85143 73.8971 8.68857 73.2629 8.68857C72.7314 8.68857 72.3114 8.79143 71.9857 8.99714C71.6257 9.22 71.3943 9.57143 71.3 10.0343L71.9771 10.0857C72.0457 9.80286 72.1914 9.58857 72.4229 9.45143C72.6286 9.31429 72.8943 9.25429 73.22 9.25429C73.9914 9.25429 74.3771 9.62286 74.3771 10.3686V10.6L73.3143 10.6171C72.6457 10.6257 72.1314 10.7543 71.7714 10.9943C71.36 11.2514 71.1629 11.6286 71.1629 12.1343C71.1629 12.4943 71.3 12.7943 71.5743 13.0257C71.84 13.2486 72.1914 13.36 72.6371 13.36ZM72.7829 12.82C72.5086 12.82 72.2857 12.7514 72.1143 12.6229C72.0352 12.5648 71.9713 12.4885 71.928 12.4005C71.8847 12.3124 71.8634 12.2152 71.8657 12.1171C71.8657 11.4743 72.3629 11.1486 73.3571 11.1314L74.3771 11.1143V11.4914C74.3771 11.8343 74.2143 12.1429 73.8971 12.4086C73.5884 12.6771 73.1921 12.8234 72.7829 12.82ZM77.9686 13.36C78.6371 13.36 79.1343 13.0771 79.4429 12.5114V13.24H80.0857V7H79.4V9.62286C79.0571 8.99714 78.5686 8.68857 77.9343 8.68857C77.3 8.68857 76.8114 8.92 76.4514 9.4C76.1171 9.82857 75.9543 10.36 75.9543 11.0114C75.9543 11.68 76.1171 12.2286 76.4514 12.6571C76.8114 13.12 77.3171 13.36 77.9686 13.36ZM78.0543 12.7943C77.5743 12.7943 77.2143 12.6143 76.9743 12.2714C76.76 11.9629 76.6571 11.5429 76.6571 11.0114C76.6571 10.48 76.76 10.0686 76.9829 9.76857C77.2229 9.42571 77.5914 9.25429 78.08 9.25429C78.4743 9.25429 78.8 9.40857 79.0486 9.73429C79.2886 10.0514 79.4171 10.4714 79.4171 10.9857V11.0714C79.4171 11.5686 79.3057 11.9714 79.0914 12.28C78.8429 12.6229 78.5 12.7943 78.0543 12.7943ZM85.9829 13.36C86.6429 13.36 87.1743 13.1286 87.5771 12.6657C87.9457 12.2371 88.1343 11.6886 88.1343 11.0286C88.1343 10.36 87.9457 9.81143 87.5686 9.37429C87.1743 8.91143 86.6429 8.68857 85.9829 8.68857C85.3143 8.68857 84.7914 8.91143 84.3971 9.37429C84.02 9.81143 83.8314 10.36 83.8314 11.0286C83.8314 11.6886 84.02 12.2371 84.3971 12.6657C84.7914 13.1286 85.3143 13.36 85.9829 13.36ZM85.9829 12.7857C85.5114 12.7857 85.1429 12.6057 84.8857 12.2457C84.6457 11.92 84.5343 11.5171 84.5343 11.0286C84.5343 10.5314 84.6457 10.1286 84.8857 9.80286C85.1429 9.44286 85.5114 9.26286 85.9829 9.26286C86.4457 9.26286 86.8143 9.44286 87.0886 9.80286C87.32 10.1286 87.44 10.5314 87.44 11.0286C87.44 11.5086 87.32 11.92 87.0886 12.2457C86.8143 12.6057 86.4457 12.7857 85.9829 12.7857ZM89.7114 13.24V10.5657C89.7371 10.1629 89.8657 9.84571 90.1057 9.60571C90.2087 9.49852 90.3326 9.41355 90.4697 9.35606C90.6068 9.29856 90.7542 9.26976 90.9029 9.27143C91.6743 9.27143 92.0686 9.7 92.0686 10.5657V13.24H92.7543V10.5143C92.7543 9.29714 92.1971 8.68857 91.1 8.68857C90.8086 8.68857 90.5429 8.75714 90.3029 8.89429C90.0629 9.02286 89.8657 9.21143 89.7114 9.46V8.80857H89.0257V13.24H89.7114ZM98.84 13.24V12.6657H98.2743C98.12 12.6657 98.0086 12.6229 97.9486 12.5543C97.88 12.4857 97.8543 12.3657 97.8543 12.2029V9.38286H98.9514V8.80857H97.8543V7.37714L97.1771 7.66V8.80857H96.2857V9.38286H97.1771V12.2029C97.1771 12.5371 97.2457 12.7857 97.3914 12.9571C97.5457 13.1457 97.8114 13.24 98.1714 13.24H98.84ZM100.4 13.24V10.7114C100.4 10.3 100.511 9.94857 100.743 9.67429C100.966 9.4 101.249 9.26286 101.591 9.26286C101.96 9.26286 102.243 9.37429 102.449 9.59714C102.637 9.82 102.74 10.1371 102.74 10.5486V13.24H103.426V10.4457C103.426 9.88 103.289 9.44286 103.014 9.14286C102.74 8.83429 102.337 8.68857 101.823 8.68857C101.523 8.68857 101.257 8.75714 101.017 8.89429C100.76 9.04 100.554 9.25429 100.4 9.53714V7H99.7143V13.24H100.4ZM106.331 13.36C106.906 13.36 107.377 13.1886 107.746 12.8629C108.046 12.5886 108.243 12.2457 108.346 11.8171H107.66C107.549 12.1257 107.403 12.3571 107.214 12.5114C106.991 12.6914 106.691 12.7857 106.331 12.7857C105.911 12.7857 105.577 12.6486 105.337 12.3743C105.097 12.1 104.969 11.7143 104.934 11.2171H108.431C108.414 10.4457 108.243 9.83714 107.917 9.40857C107.557 8.92857 107.017 8.68857 106.306 8.68857C105.663 8.68857 105.157 8.92 104.78 9.38286C104.403 9.82 104.223 10.3686 104.223 11.02C104.223 11.74 104.411 12.3057 104.806 12.7343C105.183 13.1457 105.697 13.36 106.331 13.36ZM107.72 10.6857H104.951C104.994 10.2486 105.131 9.90571 105.371 9.64857C105.611 9.39143 105.929 9.26286 106.323 9.26286C107.163 9.26286 107.634 9.73429 107.72 10.6857Z" fill="#231F20"/>
</g>
<defs>
<clipPath id="clip0_508_55">
<rect width="102.857" height="27.1429" fill="white" transform="translate(12.8571 7)"/>
</clipPath>
</defs>
</svg>
