<svg width="129" height="40" viewBox="0 0 129 40" fill="none" xmlns="http://www.w3.org/2000/svg">
<rect width="128.571" height="40" rx="4" fill="white"/>
<path d="M44.3671 10.3986H41.4121V11.2786H43.4871C43.4534 11.6542 43.295 12.0077 43.0371 12.2829C42.8369 12.4832 42.598 12.6408 42.335 12.746C42.072 12.8513 41.7903 12.9019 41.5071 12.895C40.9236 12.895 40.3641 12.6632 39.9515 12.2506C39.5389 11.8381 39.3071 11.2785 39.3071 10.695C39.3071 10.1115 39.5389 9.55194 39.9515 9.13936C40.3641 8.72678 40.9236 8.495 41.5071 8.495C41.7895 8.4794 42.0716 8.53014 42.3308 8.64313C42.59 8.75613 42.8192 8.92825 43 9.14571L43.0757 9.22214L43.7071 8.58142L43.6593 8.51428C43.4037 8.22319 43.0824 7.99718 42.7221 7.855C42.3397 7.68652 41.9257 7.60154 41.5078 7.60571C40.6885 7.60571 39.9027 7.93119 39.3234 8.51054C38.744 9.08989 38.4185 9.87567 38.4185 10.695C38.4185 11.5143 38.744 12.3001 39.3234 12.8795C39.9027 13.4588 40.6885 13.7843 41.5078 13.7843C41.9103 13.7982 42.3111 13.728 42.6849 13.5782C43.0587 13.4284 43.3971 13.2023 43.6785 12.9143C43.9309 12.6504 44.1272 12.338 44.2553 11.9961C44.3835 11.6542 44.441 11.2898 44.4243 10.925C44.4221 10.7738 44.406 10.6232 44.3764 10.475L44.3671 10.3986ZM45.285 13.66H48.8335V12.7607H46.2214V11.1357H48.5743V10.255H46.2214V8.62928H48.8328V7.73H45.2843V13.66H45.285ZM49.4071 8.62857H51.0143V13.6593H51.9414V8.62857H53.5385V7.73H49.4071V8.63V8.62857ZM56.2071 13.6593H57.135V7.73H56.2071V13.66V13.6593ZM57.8714 8.62857H59.4785V13.6593H60.4057V8.62857H62.0028V7.73H57.8714V8.63V8.62857ZM67.2728 7.60571C66.868 7.59487 66.4655 7.66934 66.0914 7.82427C65.7173 7.97921 65.38 8.21114 65.1014 8.505C64.5425 9.0972 64.2311 9.88069 64.2311 10.695C64.2311 11.5093 64.5425 12.2928 65.1014 12.885C65.6773 13.4605 66.4582 13.7838 67.2725 13.7838C68.0867 13.7838 68.8676 13.4605 69.4435 12.885C70.0025 12.2928 70.3138 11.5093 70.3138 10.695C70.3138 9.88069 70.0025 9.0972 69.4435 8.505C69.1637 8.21254 68.8261 7.98155 68.4521 7.82673C68.0782 7.6719 67.676 7.59663 67.2714 7.60571H67.2728ZM67.2728 12.895C66.9946 12.8997 66.7184 12.847 66.4616 12.7401C66.2047 12.6331 65.9726 12.4743 65.78 12.2736C65.3859 11.8423 65.1673 11.2792 65.1673 10.695C65.1673 10.1108 65.3859 9.54768 65.78 9.11642C65.9755 8.91977 66.208 8.7637 66.4641 8.65721C66.7202 8.55072 66.9948 8.49589 67.2721 8.49589C67.5494 8.49589 67.824 8.55072 68.0801 8.65721C68.3362 8.7637 68.5687 8.91977 68.7643 9.11642C69.1584 9.54768 69.3769 10.1108 69.3769 10.695C69.3769 11.2792 69.1584 11.8423 68.7643 12.2736C68.5717 12.4741 68.3399 12.6328 68.0833 12.7398C67.8267 12.8467 67.5508 12.8995 67.2728 12.895ZM74.8471 7.73071V11.1829L74.8664 11.9957L72.2071 7.73H71.165V13.66H72.0928V9.98714L72.0643 9.18428L74.8285 13.6121L74.8571 13.66H75.775V7.73H74.8471V7.73071ZM64.145 21.9321C63.3405 21.935 62.555 22.1761 61.8876 22.6252C61.2202 23.0743 60.7008 23.7111 60.3952 24.4552C60.0895 25.1993 60.0113 26.0173 60.1703 26.8059C60.3293 27.5944 60.7185 28.3181 61.2887 28.8856C61.8588 29.4531 62.5844 29.8388 63.3737 29.9941C64.163 30.1494 64.9806 30.0673 65.7233 29.7581C66.4659 29.449 67.1002 28.9266 67.5462 28.2571C67.9921 27.5875 68.2295 26.8009 68.2285 25.9964C68.2364 25.4589 68.136 24.9253 67.9333 24.4273C67.7306 23.9294 67.4298 23.4774 67.0488 23.0981C66.6678 22.7189 66.2143 22.4202 65.7154 22.2199C65.2165 22.0196 64.6825 21.9217 64.145 21.9321ZM64.145 28.4643C63.6508 28.499 63.1576 28.3842 62.7296 28.1348C62.3015 27.8855 61.9584 27.5131 61.7448 27.0662C61.5312 26.6192 61.457 26.1183 61.5319 25.6286C61.6068 25.1389 61.8273 24.6831 62.1647 24.3204C62.5021 23.9577 62.9408 23.7049 63.4238 23.5949C63.9068 23.4848 64.4118 23.5227 64.873 23.7034C65.3342 23.8842 65.7303 24.1996 66.0099 24.6085C66.2895 25.0175 66.4396 25.501 66.4407 25.9964C66.4564 26.3103 66.4091 26.6241 66.3014 26.9193C66.1938 27.2145 66.0281 27.4852 65.8141 27.7152C65.6 27.9453 65.3421 28.1301 65.0554 28.2588C64.7687 28.3875 64.4591 28.4573 64.145 28.4643ZM55.2314 21.9321C54.427 21.9351 53.6415 22.1764 52.9742 22.6256C52.3069 23.0747 51.7877 23.7116 51.4821 24.4557C51.1766 25.1998 51.0984 26.0178 51.2575 26.8063C51.4166 27.5948 51.8059 28.3185 52.376 28.8859C52.9462 29.4533 53.6718 29.8389 54.4611 29.9942C55.2504 30.1494 56.068 30.0673 56.8106 29.7581C57.5532 29.4489 58.1875 28.9265 58.6333 28.257C59.0792 27.5875 59.3167 26.8008 59.3157 25.9964C59.3228 25.459 59.2218 24.9257 59.0188 24.4281C58.8158 23.9305 58.5149 23.4787 58.1339 23.0997C57.753 22.7206 57.2997 22.4219 56.8011 22.2213C56.3025 22.0208 55.7687 21.9224 55.2314 21.9321ZM55.2314 28.4643C54.7372 28.499 54.2441 28.3842 53.816 28.1348C53.388 27.8855 53.0448 27.5131 52.8312 27.0662C52.6176 26.6192 52.5435 26.1183 52.6183 25.6286C52.6932 25.1389 52.9137 24.6831 53.2511 24.3204C53.5885 23.9577 54.0272 23.7049 54.5102 23.5949C54.9932 23.4848 55.4982 23.5227 55.9594 23.7034C56.4206 23.8842 56.8168 24.1996 57.0964 24.6085C57.3759 25.0175 57.526 25.501 57.5271 25.9964C57.5428 26.3103 57.4955 26.6241 57.3879 26.9193C57.2802 27.2145 57.1145 27.4852 56.9005 27.7152C56.6865 27.9453 56.4285 28.1301 56.1418 28.2588C55.8551 28.3875 55.5455 28.4573 55.2314 28.4643ZM44.6357 23.1857V24.9071H48.7671C48.7079 25.7157 48.3777 26.4808 47.83 27.0786C47.4155 27.5008 46.9171 27.8313 46.3668 28.0487C45.8166 28.2662 45.2268 28.3656 44.6357 28.3407C44.0328 28.3407 43.4359 28.222 42.8789 27.9913C42.3219 27.7606 41.8158 27.4224 41.3896 26.9961C40.9633 26.5698 40.6251 26.0638 40.3944 25.5068C40.1637 24.9498 40.045 24.3529 40.045 23.75C40.045 23.1471 40.1637 22.5502 40.3944 21.9932C40.6251 21.4362 40.9633 20.9302 41.3896 20.5039C41.8158 20.0776 42.3219 19.7394 42.8789 19.5087C43.4359 19.278 44.0328 19.1593 44.6357 19.1593C45.7964 19.145 46.9164 19.5879 47.7535 20.3929L48.9678 19.1786C48.3979 18.6148 47.7211 18.1704 46.9772 17.8715C46.2333 17.5726 45.4373 17.4252 44.6357 17.4379C43.7964 17.4224 42.9624 17.5744 42.1824 17.8849C41.4025 18.1954 40.6923 18.6582 40.0933 19.2463C39.4942 19.8344 39.0184 20.536 38.6936 21.3101C38.3688 22.0841 38.2015 22.9152 38.2015 23.7546C38.2015 24.5941 38.3688 25.4251 38.6936 26.1992C39.0184 26.9733 39.4942 27.6749 40.0933 28.263C40.6923 28.8511 41.4025 29.3139 42.1824 29.6244C42.9624 29.9349 43.7964 30.0869 44.6357 30.0714C45.4538 30.1044 46.2696 29.9638 47.0294 29.6588C47.7893 29.3539 48.4759 28.8915 49.0443 28.3021C50.0497 27.1994 50.5853 25.7479 50.5371 24.2564C50.5404 23.8974 50.5115 23.5388 50.4507 23.185H44.6357V23.1857ZM87.9692 24.5243C87.7262 23.7867 87.2616 23.142 86.6387 22.6782C86.0157 22.2144 85.2649 21.9541 84.4885 21.9329C83.9664 21.9365 83.4503 22.0459 82.9715 22.2544C82.4928 22.4628 82.0612 22.7661 81.7027 23.1459C81.3443 23.5256 81.0665 23.9741 80.8861 24.4641C80.7056 24.9541 80.6263 25.4756 80.6528 25.9971C80.6478 26.8686 80.9241 27.7184 81.4405 28.4204C81.957 29.1223 82.6861 29.639 83.5195 29.8936C84.353 30.1482 85.2463 30.1272 86.0669 29.8336C86.8874 29.5401 87.5914 28.9898 88.0743 28.2643L86.6885 27.3457C86.4802 27.6891 86.1865 27.9727 85.836 28.1688C85.4855 28.365 85.0902 28.467 84.6885 28.465C84.2741 28.4822 83.8641 28.3734 83.5126 28.1531C83.1611 27.9328 82.8845 27.6112 82.7193 27.2307L88.1607 24.9836L87.9692 24.5243ZM82.4228 25.8829C82.4035 25.5858 82.4436 25.288 82.5408 25.0067C82.638 24.7253 82.7904 24.4662 82.9889 24.2445C83.1874 24.0227 83.4282 23.8428 83.6971 23.7152C83.966 23.5876 84.2576 23.5149 84.555 23.5014C84.8633 23.4815 85.1707 23.5536 85.4381 23.7084C85.7055 23.8633 85.9209 24.094 86.0571 24.3714L82.4228 25.8829ZM78.0043 29.8229H79.7921V17.8679H78.0043V29.8229ZM75.0778 22.8414H75.0107C74.7391 22.5458 74.4073 22.3117 74.0377 22.155C73.6681 21.9983 73.2692 21.9225 72.8678 21.9329C71.8209 21.9809 70.8328 22.4306 70.1089 23.1885C69.385 23.9464 68.9811 24.9541 68.9811 26.0021C68.9811 27.0502 69.385 28.0579 70.1089 28.8158C70.8328 29.5736 71.8209 30.0234 72.8678 30.0714C73.2711 30.083 73.6721 30.0059 74.0424 29.8456C74.4126 29.6853 74.7432 29.4456 75.0107 29.1436H75.0778V29.7271C75.0778 31.2864 74.2457 32.1179 72.9064 32.1179C72.4591 32.1085 72.0246 31.9662 71.6584 31.7091C71.2922 31.4521 71.0108 31.0918 70.85 30.6743L69.3007 31.315C69.5914 32.0315 70.0905 32.6442 70.7333 33.0739C71.3762 33.5036 72.1332 33.7304 72.9064 33.725C75.0007 33.725 76.7707 32.4914 76.7707 29.4879V22.1807H75.0778V22.8414ZM73.0207 28.465C72.4044 28.4114 71.8306 28.1288 71.4126 27.6728C70.9945 27.2169 70.7626 26.6207 70.7626 26.0021C70.7626 25.3835 70.9945 24.7874 71.4126 24.3315C71.8306 23.8755 72.4044 23.5928 73.0207 23.5393C73.6228 23.6119 74.1774 23.9026 74.5798 24.3564C74.9821 24.8102 75.2043 25.3957 75.2043 26.0021C75.2043 26.6086 74.9821 27.1941 74.5798 27.6479C74.1774 28.1017 73.6228 28.3924 73.0207 28.465ZM96.3478 17.8679H92.0628V29.8229H93.8514V25.2893H96.3478C96.8525 25.3173 97.3575 25.2421 97.832 25.0683C98.3066 24.8944 98.7407 24.6257 99.1079 24.2783C99.475 23.931 99.7675 23.5125 99.9673 23.0483C100.167 22.5841 100.27 22.084 100.27 21.5786C100.27 21.0732 100.167 20.5731 99.9673 20.1089C99.7675 19.6447 99.475 19.2261 99.1079 18.8788C98.7407 18.5315 98.3066 18.2627 97.832 18.0889C97.3575 17.915 96.8525 17.8398 96.3478 17.8679ZM96.3857 23.625H93.8514V19.5321H96.3857C96.6609 19.5219 96.9353 19.5672 97.1925 19.6654C97.4498 19.7636 97.6846 19.9127 97.8829 20.1037C98.0812 20.2948 98.239 20.5238 98.3467 20.7773C98.4545 21.0307 98.51 21.3032 98.51 21.5786C98.51 21.8539 98.4545 22.1265 98.3467 22.3799C98.239 22.6333 98.0812 22.8624 97.8829 23.0534C97.6846 23.2445 97.4498 23.3935 97.1925 23.4918C96.9353 23.59 96.6609 23.6353 96.3857 23.625ZM107.422 21.9136C106.771 21.8738 106.122 22.0255 105.557 22.3501C104.991 22.6747 104.532 23.1579 104.238 23.74L105.816 24.4C105.976 24.1126 106.215 23.8775 106.505 23.7232C106.795 23.5688 107.124 23.5017 107.451 23.53C107.904 23.4873 108.355 23.6252 108.706 23.9135C109.057 24.2019 109.28 24.6173 109.326 25.0693V25.1843C108.751 24.8819 108.111 24.7242 107.461 24.725C105.759 24.725 104.018 25.6629 104.018 27.4221C104.035 27.7921 104.125 28.155 104.285 28.4892C104.445 28.8234 104.67 29.122 104.948 29.3674C105.225 29.6127 105.549 29.7998 105.9 29.9174C106.252 30.035 106.623 30.0809 106.992 30.0521C107.442 30.0763 107.89 29.98 108.29 29.7732C108.69 29.5664 109.028 29.2566 109.269 28.8757H109.326V29.8043H111.047V25.2229C111.047 23.0993 109.459 21.9136 107.422 21.9136ZM107.203 28.465C106.884 28.5097 106.56 28.429 106.3 28.2398C106.039 28.0506 105.862 27.7677 105.806 27.4507C105.806 26.5236 106.82 26.1693 107.699 26.1693C108.268 26.1554 108.829 26.2942 109.326 26.5714C109.261 27.0906 109.011 27.5687 108.62 27.9169C108.23 28.2651 107.726 28.4596 107.203 28.4643V28.465ZM117.321 22.1721L115.274 27.3557H115.217L113.094 22.1714H111.172L114.356 29.4214L112.539 33.4479H114.404L119.311 22.1714H117.321V22.1721ZM101.254 29.8229H103.032V17.8679H101.254V29.8229Z" fill="#222222"/>
<path d="M25.1428 16.8729L28.8742 18.895C29.4328 19.2143 29.8321 19.8529 29.8321 20.4914C29.8321 21.13 29.5128 21.7686 28.875 22.0879L11.7928 31.5072C11.5535 31.6672 11.2342 31.7464 10.915 31.7464C10.5957 31.7464 10.2764 31.6672 9.95782 31.5072C9.83868 31.4391 9.72874 31.356 9.63068 31.26L25.1428 16.8736V16.8729Z" fill="#F72F4B"/>
<path d="M25.1428 16.8729L28.8742 18.895C29.4328 19.2143 29.8321 19.8529 29.8321 20.4914C29.8321 21.13 29.5128 21.7686 28.8749 22.0879L25.1035 24.1672L21.1707 20.5564L25.1421 16.8729H25.1428Z" fill="#FDC601"/>
<path d="M11.7928 9.63574L25.1428 16.8736L9.67853 31.3036C9.29424 30.9557 9.07996 30.4329 9.07996 29.9107V11.2315C9.07996 10.5936 9.39924 9.95502 9.95853 9.63574C10.239 9.4787 10.555 9.39624 10.8764 9.39624C11.1978 9.39624 11.5138 9.4787 11.7942 9.63574H11.7928Z" fill="#02EA75"/>
<path d="M9.7371 9.78784L21.195 20.5521L9.67138 31.2964C9.29138 30.9493 9.07996 30.4293 9.07996 29.9093V11.2328C9.07996 10.6828 9.31567 10.1343 9.73781 9.78784H9.7371Z" fill="#00CEFF"/>
</svg>
