<svg width="40" height="40" viewBox="0 0 40 40" fill="none" xmlns="http://www.w3.org/2000/svg">
<rect width="40" height="40" rx="4" fill="white"/>
<path d="M15.6667 7H7V15.6667H15.6667V7ZM13.5 13.5H9.16667V9.16667H13.5V13.5ZM7 33H15.6667V24.3333H7V33ZM9.16667 26.5H13.5V30.8333H9.16667V26.5ZM24.3333 7V15.6667H33V7H24.3333ZM30.8333 13.5H26.5V9.16667H30.8333V13.5ZM24.3333 33H33V24.3333H24.3333V33ZM26.5 26.5H30.8333V30.8333H26.5V26.5ZM18.9167 7H21.0833V9.16667H18.9167V7ZM10.25 18.9167H12.4167V21.0833H10.25V18.9167ZM27.5833 20H29.75V22.1667H27.5833V20ZM24.3333 17.8333H29.75V20H24.3333V17.8333ZM21.0833 10.7917H18.9167V16.75H15.6667V24.3333H17.8333V18.9167H21.0833V17.8333H24.3333V15.6667H21.0833V10.7917ZM17.8333 24.3333H20V30.8333H17.8333V24.3333Z" fill="#333333"/>
<path d="M20 21H22.1667V24.25H20V21Z" fill="#333333"/>
</svg>
