<svg width="72" height="72" viewBox="0 0 72 72" fill="none" xmlns="http://www.w3.org/2000/svg">
<path d="M36 0C16.1178 0 0 16.1178 0 36C0 55.8822 16.1178 72 36 72C55.8822 72 72 55.8822 72 36C72 16.1178 55.8822 0 36 0ZM55.6885 27.4485L32.2215 50.9154C31.6723 51.4645 30.7819 51.4645 30.2327 50.9154L16.3116 36.9942C15.7624 36.4452 15.7624 35.5548 16.3116 35.0056L20.6868 30.6306C21.2359 30.0813 22.1264 30.0814 22.6755 30.6306L31.2272 39.1819L49.3248 21.0845C49.8739 20.5353 50.7642 20.5353 51.3135 21.0845L55.6887 25.4597C56.2377 26.0088 56.2378 26.8993 55.6885 27.4484V27.4485Z" fill="#A2FF03"/>
</svg>
