<svg width="21" height="7" viewBox="0 0 21 7" fill="none" xmlns="http://www.w3.org/2000/svg">
<path d="M15.5715 0.117148C15.1727 -0.147125 14.6401 0.138865 14.6401 0.617316L14.6401 1.80909C14.6401 2.14046 14.3715 2.40909 14.0401 2.40909L0.600002 2.40909C0.268631 2.40909 5.5561e-07 2.67772 6.13549e-07 3.00909L7.85215e-07 3.99091C8.43154e-07 4.32228 0.26863 4.59091 0.600001 4.59091L14.0401 4.59091C14.3715 4.59091 14.6401 4.85954 14.6401 5.19091L14.6401 6.38268C14.6401 6.86113 15.1727 7.14712 15.5715 6.88285L19.9221 4.00016C20.2802 3.76287 20.2802 3.23712 19.9221 2.99983L15.5715 0.117148Z" fill="white"/>
</svg>
