<svg width="21" height="8" viewBox="0 0 21 8" fill="none" xmlns="http://www.w3.org/2000/svg">
<path d="M15.5715 0.617148C15.1727 0.352875 14.6401 0.638865 14.6401 1.11732L14.6401 2.30909C14.6401 2.64046 14.3715 2.90909 14.0401 2.90909L0.600002 2.90909C0.268631 2.90909 5.5561e-07 3.17772 6.13549e-07 3.50909L7.85215e-07 4.49091C8.43154e-07 4.82228 0.26863 5.09091 0.600001 5.09091L14.0401 5.09091C14.3715 5.09091 14.6401 5.35954 14.6401 5.69091L14.6401 6.88268C14.6401 7.36113 15.1727 7.64712 15.5715 7.38285L19.9221 4.50016C20.2802 4.26287 20.2802 3.73712 19.9221 3.49983L15.5715 0.617148Z" fill="black"/>
</svg>
