<svg width="16" height="16" viewBox="0 0 16 16" fill="none" xmlns="http://www.w3.org/2000/svg">
<path d="M10.0175 3L9.83994 3.17752C9.83994 3.17752 11.7204 3.73121 12.7963 4.69227C12.7963 4.69227 10.8322 3.49094 8.03258 3.49094C5.23293 3.49094 3.26856 4.69227 3.26856 4.69227C4.34441 3.73121 6.22522 3.17752 6.22522 3.17752L6.0477 3C4.28197 3.03122 2.68335 4.25367 2.68335 4.25367C0.8864 8.00428 1.00148 11.2428 1.00148 11.2428C2.4642 13.1337 4.63732 12.9979 4.63732 12.9979L5.37893 12.0576C4.07292 11.7757 3.24775 10.616 3.24775 10.616C3.24775 10.616 5.21181 11.9532 8.03258 11.9532C10.8533 11.9532 12.8174 10.616 12.8174 10.616C12.8174 10.616 11.9919 11.7757 10.6862 12.0576L11.4281 12.9979C11.4281 12.9979 13.6013 13.1337 15.0637 11.2428C15.0637 11.2428 15.1784 8.00428 13.3818 4.25367C13.3818 4.25367 11.7832 3.03153 10.0178 3L10.0175 3ZM5.86987 10.1039C5.2011 10.1039 4.65782 9.49792 4.65782 8.77712C4.65782 8.05632 5.1907 7.45029 5.86987 7.45029C6.54904 7.45029 7.10273 8.04591 7.09202 8.77712C7.09202 9.49792 6.54874 10.1039 5.86987 10.1039ZM10.2265 10.1039C9.55774 10.1039 9.01476 9.49792 9.01476 8.77712C9.01476 8.05632 9.54764 7.45029 10.2265 7.45029C10.9054 7.45029 11.4487 8.04591 11.4487 8.77712C11.4487 9.50832 10.9054 10.1039 10.2265 10.1039Z" fill="white"/>
</svg>
