<svg width="51" height="50" viewBox="0 0 51 50" fill="none" xmlns="http://www.w3.org/2000/svg">
<path fill-rule="evenodd" clip-rule="evenodd" d="M25.4102 50C39.2173 50 50.4102 38.8071 50.4102 25C50.4102 11.1929 39.2173 0 25.4102 0C11.603 0 0.410156 11.1929 0.410156 25C0.410156 38.8071 11.603 50 25.4102 50ZM37.5541 17.0013C37.4843 15.6075 36.3031 14.4231 34.8385 14.4231L34.8312 14.4263H17.6437C16.1802 14.4263 14.9927 15.6127 14.9927 17.0065V33.9231C14.9927 35.3929 16.1781 36.5023 17.6385 36.5023H32.2614L31.5635 34.2054L33.2343 35.6617L34.7656 37.0554L37.5541 39.4231V17.0013ZM28.4558 20.3429H28.4343L28.4222 20.3549L28.4558 20.3429ZM28.4164 20.3607L28.2239 20.5513C30.3833 21.1763 31.4281 22.1523 31.4281 22.1523C30.0364 21.4565 28.7823 21.1085 27.5281 20.9679C26.6218 20.8273 25.7156 20.9013 24.95 20.9679H24.7416C24.2521 20.9679 23.2104 21.1763 21.8146 21.7335C21.3281 21.945 21.0489 22.0835 21.0489 22.0835C21.0489 22.0835 22.0927 21.0398 24.3927 20.4825L24.2521 20.3419C24.2521 20.3419 22.5104 20.2752 20.6302 21.6648C20.6302 21.6648 18.75 24.9398 18.75 28.9773C18.75 28.9773 19.7916 30.7898 22.6489 30.8585C22.6489 30.8585 23.0656 30.3033 23.4875 29.8148C21.8833 29.3273 21.2583 28.3523 21.2583 28.3523C21.2583 28.3523 21.3979 28.421 21.6073 28.5606H21.6698C21.6992 28.5606 21.7138 28.5745 21.7293 28.5891C21.7303 28.59 21.7313 28.591 21.7323 28.5919V28.5981C21.7489 28.6148 21.7635 28.6294 21.7948 28.6294C21.825 28.6419 21.8553 28.6543 21.8856 28.6668C22.1986 28.7956 22.507 28.9226 22.7635 29.046C23.365 29.3035 23.9941 29.4909 24.6385 29.6044C25.6073 29.745 26.7177 29.8127 27.9823 29.6044L28.0227 29.5953C28.6342 29.4578 29.2458 29.3202 29.8573 29.0471C29.969 28.9898 30.0879 28.9324 30.2129 28.8722C30.5424 28.7133 30.9146 28.5338 31.3125 28.2794C31.3125 28.2794 30.6875 29.2544 29.0156 29.7419C29.3593 30.2273 29.8437 30.7835 29.8437 30.7835C32.1858 30.7323 33.3544 29.5061 33.7344 29.1073C33.8182 29.0194 33.8637 28.9717 33.875 28.9856C33.875 24.9544 31.9843 21.6731 31.9843 21.6731C30.3008 20.4231 28.7241 20.3619 28.4164 20.3607ZM29.9635 26.3304C29.9635 25.5648 29.3729 24.9398 28.6406 24.9398V24.9429C27.9146 24.9429 27.3198 25.5658 27.3177 26.3367C27.3177 27.1013 27.9114 27.7263 28.6406 27.7263C29.3698 27.7263 29.9635 27.1013 29.9635 26.3304ZM25.2271 26.3304C25.2271 25.5648 24.6375 24.9398 23.9083 24.9398L23.9041 24.9429C23.175 24.9429 22.5812 25.5658 22.5812 26.3367C22.5812 27.1013 23.175 27.7263 23.9041 27.7263C24.6333 27.7263 25.2271 27.1013 25.2271 26.3304Z" fill="white"/>
</svg>
