<svg width="50" height="50" viewBox="0 0 50 50" fill="none" xmlns="http://www.w3.org/2000/svg">
<path fill-rule="evenodd" clip-rule="evenodd" d="M25 50C38.8071 50 50 38.8071 50 25C50 11.1929 38.8071 0 25 0C11.1929 0 0 11.1929 0 25C0 38.8071 11.1929 50 25 50ZM37.3958 17.0253C38.581 16.8872 39.7393 16.5747 40.8331 16.0978V16.0992C40.0271 17.2851 39.0156 18.3173 37.8464 19.1471C37.8581 19.3994 37.8639 19.6546 37.8639 19.9098C37.8639 27.6929 31.8454 36.669 20.8393 36.669C17.5927 36.6737 14.4115 35.7558 11.6664 34.0221C12.1403 34.078 12.617 34.1063 13.0941 34.1067C15.7825 34.1126 18.3966 33.2251 20.5258 31.5838C17.9066 31.5356 15.6973 29.8323 14.936 27.4932C15.8326 27.6612 16.7555 27.6263 17.6368 27.3911C14.901 26.85 12.8389 24.4686 12.8389 21.6146V21.5417C13.6722 21.9968 14.601 22.2491 15.55 22.2782C13.9443 21.2223 12.8871 19.4198 12.8871 17.3753C12.8864 16.3335 13.1665 15.3108 13.6979 14.4148C15.2132 16.2413 17.0925 17.7319 19.216 18.7915C21.3395 19.8511 23.6605 20.4565 26.031 20.569C25.9289 20.1373 25.8764 19.6882 25.8764 19.2273C25.8764 15.9723 28.5554 13.3357 31.8599 13.3357C32.6761 13.3337 33.4841 13.4977 34.2349 13.8176C34.9857 14.1375 35.6637 14.6066 36.2276 15.1965C37.5912 14.9325 38.8716 14.4411 40.0266 13.7673C39.5755 15.1374 38.6401 16.2958 37.3958 17.0253Z" fill="white"/>
</svg>
