<svg width="16" height="14" viewBox="0 0 16 14" fill="none" xmlns="http://www.w3.org/2000/svg">
<path d="M15.7618 2.29122C15.2052 2.53789 14.6072 2.70456 13.9785 2.77989C14.6272 2.39175 15.1125 1.78087 15.3438 1.06122C14.7344 1.42321 14.0674 1.67802 13.3718 1.81456C12.9041 1.31513 12.2846 0.984106 11.6094 0.872871C10.9342 0.761636 10.2412 0.876416 9.638 1.19939C9.03476 1.52236 8.55503 2.03546 8.27328 2.65902C7.99153 3.28259 7.92354 3.98172 8.07984 4.64789C6.84497 4.58589 5.63693 4.26492 4.53413 3.70583C3.43133 3.14673 2.45841 2.362 1.67851 1.40256C1.41184 1.86256 1.25851 2.39589 1.25851 2.96389C1.25821 3.47522 1.38413 3.97872 1.6251 4.42971C1.86606 4.8807 2.21462 5.26525 2.63985 5.54922C2.1467 5.53353 1.66443 5.40028 1.23318 5.16055V5.20055C1.23313 5.91772 1.4812 6.61281 1.9353 7.16789C2.3894 7.72296 3.02156 8.10384 3.72451 8.24589C3.26703 8.3697 2.7874 8.38794 2.32185 8.29922C2.52018 8.9163 2.90651 9.45591 3.42676 9.84251C3.947 10.2291 4.57512 10.4433 5.22318 10.4552C4.12307 11.3188 2.76444 11.7873 1.36585 11.7852C1.1181 11.7853 0.870563 11.7708 0.624512 11.7419C2.04416 12.6547 3.69674 13.1391 5.38451 13.1372C11.0978 13.1372 14.2212 8.40522 14.2212 4.30122C14.2212 4.16789 14.2178 4.03322 14.2118 3.89989C14.8194 3.46054 15.3438 2.91649 15.7605 2.29322L15.7618 2.29122Z" fill="white"/>
</svg>
