<svg width="219" height="48" viewBox="0 0 219 48" fill="none" xmlns="http://www.w3.org/2000/svg">
<path d="M54.0963 40.4016C51.9552 40.4016 49.9837 40.036 48.1821 39.3049C46.3804 38.5738 44.8007 37.5555 43.4429 36.2499C42.1112 34.9443 41.0667 33.4168 40.3095 31.6674C39.5523 29.8918 39.1737 27.9857 39.1737 25.949C39.1737 23.9123 39.5392 22.0323 40.2703 20.309C41.0276 18.5595 42.072 17.032 43.4037 15.7264C44.7354 14.4209 46.3021 13.4156 48.1037 12.7106C49.9054 11.9794 51.8768 11.6139 54.0179 11.6139C56.1591 11.6139 58.1305 11.9794 59.9321 12.7106C61.7338 13.4156 63.3005 14.4209 64.6322 15.7264C65.9639 17.032 66.9953 18.5595 67.7264 20.309C68.4836 22.0584 68.8622 23.9515 68.8622 25.9882C68.8622 28.0248 68.4836 29.9179 67.7264 31.6674C66.9953 33.4168 65.9639 34.9574 64.6322 36.2891C63.3005 37.5946 61.7338 38.613 59.9321 39.3441C58.1566 40.0491 56.2113 40.4016 54.0963 40.4016ZM54.0179 34.1349C55.5846 34.1349 56.9424 33.7954 58.0913 33.1165C59.2402 32.4376 60.128 31.4846 60.7547 30.2573C61.3813 29.0301 61.6947 27.594 61.6947 25.949C61.6947 24.7479 61.5119 23.6512 61.1463 22.659C60.8069 21.6667 60.2977 20.8181 59.6188 20.1131C58.9399 19.382 58.1305 18.8206 57.1905 18.4289C56.2505 18.0373 55.193 17.8414 54.0179 17.8414C52.4513 17.8414 51.0935 18.1809 49.9446 18.8598C48.7957 19.5126 47.9079 20.4526 47.2812 21.6798C46.6546 22.907 46.3412 24.3301 46.3412 25.949C46.3412 27.2023 46.5109 28.3382 46.8504 29.3565C47.216 30.3487 47.7382 31.2104 48.4171 31.9415C49.096 32.6465 49.9054 33.1949 50.8454 33.5865C51.7854 33.9521 52.8429 34.1349 54.0179 34.1349Z" fill="white"/>
<path d="M83.2961 40.2841C82.0689 40.2841 80.9331 40.0621 79.8886 39.6182C78.8442 39.1744 77.9825 38.5738 77.3036 37.8166C76.6247 37.0332 76.2069 36.1324 76.0503 35.114V25.7923C76.2069 24.774 76.6247 23.8601 77.3036 23.0506C78.0086 22.2151 78.8703 21.5623 79.8886 21.0923C80.9331 20.5962 82.0689 20.3481 83.2961 20.3481C85.15 20.3481 86.782 20.779 88.192 21.6406C89.602 22.4762 90.6987 23.6512 91.482 25.1656C92.2915 26.6801 92.6962 28.4034 92.6962 30.3357C92.6962 32.2418 92.2915 33.9521 91.482 35.4666C90.6987 36.9549 89.602 38.1299 88.192 38.9916C86.782 39.8532 85.15 40.2841 83.2961 40.2841ZM82.0036 34.2132C82.7609 34.2132 83.4267 34.0435 84.0011 33.704C84.5756 33.3646 85.0195 32.9076 85.3328 32.3332C85.6462 31.7326 85.8028 31.0537 85.8028 30.2965C85.8028 29.5393 85.6462 28.8735 85.3328 28.299C85.0195 27.7246 84.5756 27.2676 84.0011 26.9282C83.4267 26.5887 82.7739 26.419 82.0428 26.419C81.3378 26.419 80.6981 26.5887 80.1236 26.9282C79.5492 27.2415 79.1053 27.6984 78.7919 28.299C78.4786 28.8735 78.3219 29.5393 78.3219 30.2965C78.3219 31.0537 78.4786 31.7326 78.7919 32.3332C79.1053 32.9076 79.5361 33.3646 80.0844 33.704C80.6589 34.0435 81.2986 34.2132 82.0036 34.2132ZM71.8986 48V20.7398H78.7136V25.5573L77.5778 30.179L78.5569 34.8399V48H71.8986Z" fill="white"/>
<path d="M105.172 40.3232C103.031 40.3232 101.138 39.9055 99.4932 39.0699C97.8482 38.2082 96.5557 37.0202 95.6157 35.5057C94.6757 33.9913 94.2057 32.2549 94.2057 30.2965C94.2057 28.3643 94.6626 26.654 95.5765 25.1656C96.4904 23.6512 97.7307 22.4631 99.2974 21.6015C100.89 20.7137 102.679 20.2698 104.663 20.2698C106.595 20.2698 108.306 20.6876 109.794 21.5231C111.309 22.3326 112.484 23.4684 113.319 24.9306C114.181 26.3668 114.612 28.0118 114.612 29.8657C114.612 30.2573 114.586 30.6621 114.533 31.0799C114.507 31.4715 114.429 31.9285 114.298 32.4507L97.4173 32.529V28.1423L111.596 28.0248L108.541 29.944C108.515 28.8735 108.358 27.9987 108.071 27.3198C107.784 26.6148 107.366 26.0795 106.817 25.714C106.269 25.3484 105.577 25.1656 104.742 25.1656C103.88 25.1656 103.136 25.3745 102.509 25.7923C101.882 26.2101 101.399 26.7976 101.06 27.5548C100.72 28.3121 100.551 29.226 100.551 30.2965C100.551 31.3932 100.733 32.3332 101.099 33.1165C101.465 33.8738 101.987 34.4482 102.666 34.8399C103.345 35.2315 104.18 35.4274 105.172 35.4274C106.112 35.4274 106.935 35.2707 107.64 34.9574C108.371 34.644 109.024 34.161 109.598 33.5082L113.162 37.0724C112.222 38.143 111.074 38.9524 109.716 39.5007C108.384 40.0491 106.87 40.3232 105.172 40.3232Z" fill="white"/>
<path d="M129.601 39.8924V29.0823C129.601 28.1946 129.34 27.5026 128.818 27.0065C128.296 26.4843 127.63 26.2232 126.82 26.2232C126.272 26.2232 125.776 26.3407 125.332 26.5757C124.914 26.8107 124.588 27.137 124.353 27.5548C124.118 27.9726 124 28.4818 124 29.0823L121.337 27.829C121.337 26.2884 121.676 24.9698 122.355 23.8731C123.034 22.7504 123.961 21.8887 125.136 21.2881C126.337 20.6615 127.695 20.3481 129.21 20.3481C130.593 20.3481 131.821 20.6745 132.891 21.3273C133.988 21.954 134.85 22.8026 135.476 23.8731C136.103 24.9437 136.416 26.1579 136.416 27.5157V39.8924H129.601ZM117.185 39.8924V20.7398H124V39.8924H117.185Z" fill="white"/>
<path d="M149.498 40.3232C147.462 40.3232 145.621 39.8924 143.976 39.0307C142.357 38.1691 141.077 36.981 140.137 35.4666C139.197 33.9521 138.727 32.2418 138.727 30.3357C138.727 28.4034 139.197 26.6801 140.137 25.1656C141.104 23.6512 142.396 22.4631 144.015 21.6015C145.66 20.7137 147.514 20.2698 149.577 20.2698C151.065 20.2698 152.423 20.5178 153.65 21.014C154.877 21.5101 156 22.2542 157.018 23.2465L152.71 27.5548C152.318 27.1632 151.861 26.8759 151.339 26.6932C150.843 26.4843 150.256 26.3798 149.577 26.3798C148.846 26.3798 148.18 26.5495 147.579 26.889C147.005 27.2023 146.535 27.6462 146.169 28.2207C145.83 28.7951 145.66 29.4871 145.66 30.2965C145.66 31.0799 145.83 31.7718 146.169 32.3724C146.535 32.9468 147.005 33.4038 147.579 33.7432C148.18 34.0827 148.846 34.2524 149.577 34.2524C150.308 34.2524 150.934 34.1349 151.457 33.8999C151.979 33.6649 152.436 33.3254 152.828 32.8815L157.175 37.1899C156.104 38.2343 154.943 39.0177 153.689 39.5399C152.462 40.0621 151.065 40.3232 149.498 40.3232Z" fill="white"/>
<path d="M168.584 40.3232C166.521 40.3232 164.68 39.8924 163.061 39.0307C161.468 38.143 160.202 36.9418 159.262 35.4274C158.322 33.8868 157.852 32.1635 157.852 30.2573C157.852 28.3512 158.309 26.654 159.223 25.1656C160.163 23.6512 161.442 22.4631 163.061 21.6015C164.68 20.7137 166.508 20.2698 168.544 20.2698C170.581 20.2698 172.396 20.7137 173.989 21.6015C175.608 22.4631 176.887 23.6512 177.827 25.1656C178.767 26.654 179.237 28.3512 179.237 30.2573C179.237 32.1635 178.767 33.8868 177.827 35.4274C176.913 36.9418 175.647 38.143 174.028 39.0307C172.435 39.8924 170.62 40.3232 168.584 40.3232ZM168.544 34.2524C169.302 34.2524 169.954 34.0957 170.503 33.7824C171.077 33.4429 171.521 32.9729 171.834 32.3724C172.148 31.7718 172.305 31.0799 172.305 30.2965C172.305 29.5132 172.135 28.8343 171.795 28.2598C171.482 27.6593 171.051 27.2023 170.503 26.889C169.954 26.5495 169.302 26.3798 168.544 26.3798C167.813 26.3798 167.161 26.5495 166.586 26.889C166.012 27.2284 165.568 27.6984 165.254 28.299C164.941 28.8735 164.784 29.5523 164.784 30.3357C164.784 31.0929 164.941 31.7718 165.254 32.3724C165.568 32.9729 166.012 33.4429 166.586 33.7824C167.161 34.0957 167.813 34.2524 168.544 34.2524Z" fill="white"/>
<path d="M181.941 39.8924V20.7398H188.756V39.8924H181.941ZM188.756 29.474L185.701 26.889C186.458 24.7218 187.463 23.0898 188.717 21.9931C189.97 20.8965 191.602 20.3481 193.613 20.3481C194.526 20.3481 195.31 20.4656 195.963 20.7006C196.641 20.9356 197.216 21.3012 197.686 21.7973L193.73 27.0848C193.521 26.8498 193.221 26.667 192.829 26.5365C192.464 26.3798 192.046 26.3015 191.576 26.3015C190.688 26.3015 189.996 26.5757 189.5 27.124C189.004 27.6462 188.756 28.4296 188.756 29.474Z" fill="white"/>
<path d="M206.728 40.2841C204.874 40.2841 203.242 39.8532 201.832 38.9916C200.422 38.1299 199.312 36.9549 198.503 35.4666C197.719 33.9521 197.328 32.2418 197.328 30.3357C197.328 28.4034 197.719 26.6801 198.503 25.1656C199.312 23.6512 200.409 22.4762 201.793 21.6406C203.203 20.779 204.848 20.3481 206.728 20.3481C207.929 20.3481 209.052 20.5701 210.096 21.014C211.14 21.4317 212.015 22.0323 212.72 22.8156C213.425 23.599 213.843 24.4868 213.974 25.479V34.8399C213.843 35.8321 213.425 36.746 212.72 37.5816C212.015 38.4171 211.14 39.083 210.096 39.5791C209.052 40.0491 207.929 40.2841 206.728 40.2841ZM207.942 34.2132C208.699 34.2132 209.352 34.0565 209.9 33.7432C210.448 33.4038 210.879 32.9468 211.193 32.3724C211.532 31.7718 211.702 31.0799 211.702 30.2965C211.702 29.5393 211.545 28.8735 211.232 28.299C210.919 27.7246 210.475 27.2676 209.9 26.9282C209.352 26.5887 208.712 26.419 207.981 26.419C207.25 26.419 206.597 26.5887 206.023 26.9282C205.474 27.2676 205.03 27.7376 204.691 28.3382C204.378 28.9126 204.221 29.5654 204.221 30.2965C204.221 31.0537 204.378 31.7326 204.691 32.3332C205.004 32.9076 205.448 33.3646 206.023 33.704C206.597 34.0435 207.237 34.2132 207.942 34.2132ZM218.125 39.8924H211.428V34.7615L212.407 30.0615L211.31 25.4398V11.3397H218.125V39.8924Z" fill="white"/>
<path fill-rule="evenodd" clip-rule="evenodd" d="M30.9266 22.974H30.9256C30.9294 23.163 30.9218 23.3534 30.9022 23.5446L29.5718 36.5156C29.4285 37.9127 28.6631 39.1707 27.4882 39.9402L18.0176 46.1425C16.4663 47.1585 14.4603 47.1585 12.9089 46.1425L3.4384 39.9402C2.26351 39.1707 1.49808 37.9127 1.35478 36.5156L0.0244277 23.5446C0.00482279 23.3534 -0.00285035 23.163 0.000947227 22.974H6.36471e-06C6.36471e-06 15.3932 4.14628 12.4023 7.72951 9.81752L7.72952 9.81752C8.0888 9.55834 8.44243 9.30326 8.78564 9.04804C8.14216 10.3295 7.62281 12.123 9.1205 12.123C11.9604 12.123 14.4756 4.25054 15.3367 0C21.7322 4.91985 30.9266 15.1312 30.9266 22.974ZM25.3149 24.6268L25.1967 26.9567C25.7455 26.8601 26.2914 26.7554 26.8345 26.6426C27.2645 27.3846 27.5107 28.2463 27.5107 29.1656C27.5107 31.6334 25.7367 33.6868 23.3945 34.1202L22.0857 36.6781L22.2115 34.1979C19.5496 34.0624 17.433 31.8612 17.433 29.1656C17.433 28.6758 17.5028 28.2023 17.6332 27.7546C19.7976 27.6759 21.9302 27.4721 24.0237 27.1501L25.3149 24.6268ZM3.69066 29.1656C3.69066 28.2466 3.93669 27.385 4.36649 26.6432C7.35219 27.2632 10.4266 27.6411 13.5683 27.7553C13.6985 28.2028 13.7684 28.676 13.7684 29.1656C13.7684 31.9485 11.5124 34.2044 8.72951 34.2044C5.94663 34.2044 3.69066 31.9485 3.69066 29.1656Z" fill="white"/>
</svg>
