<svg width="36" height="36" viewBox="0 0 36 36" fill="none" xmlns="http://www.w3.org/2000/svg">
<circle cx="18" cy="18" r="14" stroke="#1B1B1B" stroke-width="4"/>
<circle cx="18" cy="18" r="12" fill="white"/>
<path fill-rule="evenodd" clip-rule="evenodd" d="M13.0502 14.4645C12.6597 14.855 12.6597 15.4882 13.0502 15.8787L15.1715 18L13.0502 20.1213C12.6597 20.5118 12.6597 21.145 13.0502 21.5355L14.4644 22.9497C14.8549 23.3403 15.4881 23.3403 15.8786 22.9497L17.9999 20.8284L20.1212 22.9497C20.5118 23.3403 21.1449 23.3403 21.5355 22.9497L22.9497 21.5355C23.3402 21.145 23.3402 20.5118 22.9497 20.1213L20.8284 18L22.9497 15.8787C23.3402 15.4882 23.3402 14.855 22.9497 14.4645L21.5355 13.0503C21.1449 12.6597 20.5118 12.6597 20.1212 13.0503L17.9999 15.1716L15.8786 13.0503C15.4881 12.6597 14.8549 12.6597 14.4644 13.0503L13.0502 14.4645Z" fill="#1B1B1B"/>
</svg>
